<?xml version="1.0" encoding="utf-8" standalone="no"?>
<!DOCTYPE svg PUBLIC "-//W3C//DTD SVG 1.1//EN"
  "http://www.w3.org/Graphics/SVG/1.1/DTD/svg11.dtd">
<svg xmlns:xlink="http://www.w3.org/1999/xlink" width="504.766278pt" height="315.314312pt" viewBox="0 0 504.766278 315.314312" xmlns="http://www.w3.org/2000/svg" version="1.1">
 <metadata>
  <rdf:RDF xmlns:dc="http://purl.org/dc/elements/1.1/" xmlns:cc="http://creativecommons.org/ns#" xmlns:rdf="http://www.w3.org/1999/02/22-rdf-syntax-ns#">
   <cc:Work>
    <dc:type rdf:resource="http://purl.org/dc/dcmitype/StillImage"/>
    <dc:date>2026-05-30T18:20:21.821091</dc:date>
    <dc:format>image/svg+xml</dc:format>
    <dc:creator>
     <cc:Agent>
      <dc:title>Matplotlib v3.9.4, https://matplotlib.org/</dc:title>
     </cc:Agent>
    </dc:creator>
   </cc:Work>
  </rdf:RDF>
 </metadata>
 <defs>
  <style type="text/css">*{stroke-linejoin: round; stroke-linecap: butt}</style>
 </defs>
 <g id="figure_1">
  <g id="patch_1">
   <path d="M 0 315.314312 
L 504.766278 315.314312 
L 504.766278 0 
L 0 0 
z
" style="fill: #ffffff"/>
  </g>
  <g id="axes_1">
   <g id="patch_2">
    <path d="M 35.844688 275.822437 
L 482.244687 275.822437 
L 482.244687 20.798437 
L 35.844688 20.798437 
z
" style="fill: #ffffff"/>
   </g>
   <g id="matplotlib.axis_1">
    <g id="xtick_1">
     <g id="line2d_1">
      <path d="M 56.135597 275.822437 
L 56.135597 20.798437 
" clip-path="url(#pcc17c49101)" style="fill: none; stroke: #b0b0b0; stroke-opacity: 0.3; stroke-width: 0.8; stroke-linecap: square"/>
     </g>
     <g id="line2d_2">
      <defs>
       <path id="mdd31fc455c" d="M 0 0 
L 0 3.5 
" style="stroke: #000000; stroke-width: 0.8"/>
      </defs>
      <g>
       <use xlink:href="#mdd31fc455c" x="56.135597" y="275.822437" style="stroke: #000000; stroke-width: 0.8"/>
      </g>
     </g>
     <g id="text_1">
      <text style="font: 11px 'DejaVu Sans', 'Bitstream Vera Sans', 'Computer Modern Sans Serif', 'Lucida Grande', 'Verdana', 'Geneva', 'Lucid', 'Arial', 'Helvetica', 'Avant Garde', sans-serif; text-anchor: middle" x="56.135597" y="291.180719" transform="rotate(-0 56.135597 291.180719)">0</text>
     </g>
    </g>
    <g id="xtick_2">
     <g id="line2d_3">
      <path d="M 157.590142 275.822437 
L 157.590142 20.798437 
" clip-path="url(#pcc17c49101)" style="fill: none; stroke: #b0b0b0; stroke-opacity: 0.3; stroke-width: 0.8; stroke-linecap: square"/>
     </g>
     <g id="line2d_4">
      <g>
       <use xlink:href="#mdd31fc455c" x="157.590142" y="275.822437" style="stroke: #000000; stroke-width: 0.8"/>
      </g>
     </g>
     <g id="text_2">
      <text style="font: 11px 'DejaVu Sans', 'Bitstream Vera Sans', 'Computer Modern Sans Serif', 'Lucida Grande', 'Verdana', 'Geneva', 'Lucid', 'Arial', 'Helvetica', 'Avant Garde', sans-serif; text-anchor: middle" x="157.590142" y="291.180719" transform="rotate(-0 157.590142 291.180719)">1</text>
     </g>
    </g>
    <g id="xtick_3">
     <g id="line2d_5">
      <path d="M 259.044687 275.822437 
L 259.044687 20.798437 
" clip-path="url(#pcc17c49101)" style="fill: none; stroke: #b0b0b0; stroke-opacity: 0.3; stroke-width: 0.8; stroke-linecap: square"/>
     </g>
     <g id="line2d_6">
      <g>
       <use xlink:href="#mdd31fc455c" x="259.044687" y="275.822437" style="stroke: #000000; stroke-width: 0.8"/>
      </g>
     </g>
     <g id="text_3">
      <text style="font: 11px 'DejaVu Sans', 'Bitstream Vera Sans', 'Computer Modern Sans Serif', 'Lucida Grande', 'Verdana', 'Geneva', 'Lucid', 'Arial', 'Helvetica', 'Avant Garde', sans-serif; text-anchor: middle" x="259.044687" y="291.180719" transform="rotate(-0 259.044687 291.180719)">2</text>
     </g>
    </g>
    <g id="xtick_4">
     <g id="line2d_7">
      <path d="M 360.499233 275.822437 
L 360.499233 20.798437 
" clip-path="url(#pcc17c49101)" style="fill: none; stroke: #b0b0b0; stroke-opacity: 0.3; stroke-width: 0.8; stroke-linecap: square"/>
     </g>
     <g id="line2d_8">
      <g>
       <use xlink:href="#mdd31fc455c" x="360.499233" y="275.822437" style="stroke: #000000; stroke-width: 0.8"/>
      </g>
     </g>
     <g id="text_4">
      <text style="font: 11px 'DejaVu Sans', 'Bitstream Vera Sans', 'Computer Modern Sans Serif', 'Lucida Grande', 'Verdana', 'Geneva', 'Lucid', 'Arial', 'Helvetica', 'Avant Garde', sans-serif; text-anchor: middle" x="360.499233" y="291.180719" transform="rotate(-0 360.499233 291.180719)">3</text>
     </g>
    </g>
    <g id="xtick_5">
     <g id="line2d_9">
      <path d="M 461.953778 275.822437 
L 461.953778 20.798437 
" clip-path="url(#pcc17c49101)" style="fill: none; stroke: #b0b0b0; stroke-opacity: 0.3; stroke-width: 0.8; stroke-linecap: square"/>
     </g>
     <g id="line2d_10">
      <g>
       <use xlink:href="#mdd31fc455c" x="461.953778" y="275.822437" style="stroke: #000000; stroke-width: 0.8"/>
      </g>
     </g>
     <g id="text_5">
      <text style="font: 11px 'DejaVu Sans', 'Bitstream Vera Sans', 'Computer Modern Sans Serif', 'Lucida Grande', 'Verdana', 'Geneva', 'Lucid', 'Arial', 'Helvetica', 'Avant Garde', sans-serif; text-anchor: middle" x="461.953778" y="291.180719" transform="rotate(-0 461.953778 291.180719)">4</text>
     </g>
    </g>
    <g id="text_6">
     <text style="font: 11px 'DejaVu Sans', 'Bitstream Vera Sans', 'Computer Modern Sans Serif', 'Lucida Grande', 'Verdana', 'Geneva', 'Lucid', 'Arial', 'Helvetica', 'Avant Garde', sans-serif; text-anchor: middle" x="259.044688" y="305.826656" transform="rotate(-0 259.044688 305.826656)">round</text>
    </g>
   </g>
   <g id="matplotlib.axis_2">
    <g id="ytick_1">
     <g id="line2d_11">
      <path d="M 35.844688 263.532124 
L 482.244687 263.532124 
" clip-path="url(#pcc17c49101)" style="fill: none; stroke: #b0b0b0; stroke-opacity: 0.3; stroke-width: 0.8; stroke-linecap: square"/>
     </g>
     <g id="line2d_12">
      <defs>
       <path id="m833273b956" d="M 0 0 
L -3.5 0 
" style="stroke: #000000; stroke-width: 0.8"/>
      </defs>
      <g>
       <use xlink:href="#m833273b956" x="35.844688" y="263.532124" style="stroke: #000000; stroke-width: 0.8"/>
      </g>
     </g>
     <g id="text_7">
      <text style="font: 11px 'DejaVu Sans', 'Bitstream Vera Sans', 'Computer Modern Sans Serif', 'Lucida Grande', 'Verdana', 'Geneva', 'Lucid', 'Arial', 'Helvetica', 'Avant Garde', sans-serif; text-anchor: end" x="28.844688" y="267.711265" transform="rotate(-0 28.844688 267.711265)">0</text>
     </g>
    </g>
    <g id="ytick_2">
     <g id="line2d_13">
      <path d="M 35.844688 232.806341 
L 482.244687 232.806341 
" clip-path="url(#pcc17c49101)" style="fill: none; stroke: #b0b0b0; stroke-opacity: 0.3; stroke-width: 0.8; stroke-linecap: square"/>
     </g>
     <g id="line2d_14">
      <g>
       <use xlink:href="#m833273b956" x="35.844688" y="232.806341" style="stroke: #000000; stroke-width: 0.8"/>
      </g>
     </g>
     <g id="text_8">
      <text style="font: 11px 'DejaVu Sans', 'Bitstream Vera Sans', 'Computer Modern Sans Serif', 'Lucida Grande', 'Verdana', 'Geneva', 'Lucid', 'Arial', 'Helvetica', 'Avant Garde', sans-serif; text-anchor: end" x="28.844688" y="236.985482" transform="rotate(-0 28.844688 236.985482)">1</text>
     </g>
    </g>
    <g id="ytick_3">
     <g id="line2d_15">
      <path d="M 35.844688 202.080558 
L 482.244687 202.080558 
" clip-path="url(#pcc17c49101)" style="fill: none; stroke: #b0b0b0; stroke-opacity: 0.3; stroke-width: 0.8; stroke-linecap: square"/>
     </g>
     <g id="line2d_16">
      <g>
       <use xlink:href="#m833273b956" x="35.844688" y="202.080558" style="stroke: #000000; stroke-width: 0.8"/>
      </g>
     </g>
     <g id="text_9">
      <text style="font: 11px 'DejaVu Sans', 'Bitstream Vera Sans', 'Computer Modern Sans Serif', 'Lucida Grande', 'Verdana', 'Geneva', 'Lucid', 'Arial', 'Helvetica', 'Avant Garde', sans-serif; text-anchor: end" x="28.844688" y="206.259699" transform="rotate(-0 28.844688 206.259699)">2</text>
     </g>
    </g>
    <g id="ytick_4">
     <g id="line2d_17">
      <path d="M 35.844688 171.354775 
L 482.244687 171.354775 
" clip-path="url(#pcc17c49101)" style="fill: none; stroke: #b0b0b0; stroke-opacity: 0.3; stroke-width: 0.8; stroke-linecap: square"/>
     </g>
     <g id="line2d_18">
      <g>
       <use xlink:href="#m833273b956" x="35.844688" y="171.354775" style="stroke: #000000; stroke-width: 0.8"/>
      </g>
     </g>
     <g id="text_10">
      <text style="font: 11px 'DejaVu Sans', 'Bitstream Vera Sans', 'Computer Modern Sans Serif', 'Lucida Grande', 'Verdana', 'Geneva', 'Lucid', 'Arial', 'Helvetica', 'Avant Garde', sans-serif; text-anchor: end" x="28.844688" y="175.533915" transform="rotate(-0 28.844688 175.533915)">3</text>
     </g>
    </g>
    <g id="ytick_5">
     <g id="line2d_19">
      <path d="M 35.844688 140.628992 
L 482.244687 140.628992 
" clip-path="url(#pcc17c49101)" style="fill: none; stroke: #b0b0b0; stroke-opacity: 0.3; stroke-width: 0.8; stroke-linecap: square"/>
     </g>
     <g id="line2d_20">
      <g>
       <use xlink:href="#m833273b956" x="35.844688" y="140.628992" style="stroke: #000000; stroke-width: 0.8"/>
      </g>
     </g>
     <g id="text_11">
      <text style="font: 11px 'DejaVu Sans', 'Bitstream Vera Sans', 'Computer Modern Sans Serif', 'Lucida Grande', 'Verdana', 'Geneva', 'Lucid', 'Arial', 'Helvetica', 'Avant Garde', sans-serif; text-anchor: end" x="28.844688" y="144.808132" transform="rotate(-0 28.844688 144.808132)">4</text>
     </g>
    </g>
    <g id="ytick_6">
     <g id="line2d_21">
      <path d="M 35.844688 109.903209 
L 482.244687 109.903209 
" clip-path="url(#pcc17c49101)" style="fill: none; stroke: #b0b0b0; stroke-opacity: 0.3; stroke-width: 0.8; stroke-linecap: square"/>
     </g>
     <g id="line2d_22">
      <g>
       <use xlink:href="#m833273b956" x="35.844688" y="109.903209" style="stroke: #000000; stroke-width: 0.8"/>
      </g>
     </g>
     <g id="text_12">
      <text style="font: 11px 'DejaVu Sans', 'Bitstream Vera Sans', 'Computer Modern Sans Serif', 'Lucida Grande', 'Verdana', 'Geneva', 'Lucid', 'Arial', 'Helvetica', 'Avant Garde', sans-serif; text-anchor: end" x="28.844688" y="114.082349" transform="rotate(-0 28.844688 114.082349)">5</text>
     </g>
    </g>
    <g id="ytick_7">
     <g id="line2d_23">
      <path d="M 35.844688 79.177425 
L 482.244687 79.177425 
" clip-path="url(#pcc17c49101)" style="fill: none; stroke: #b0b0b0; stroke-opacity: 0.3; stroke-width: 0.8; stroke-linecap: square"/>
     </g>
     <g id="line2d_24">
      <g>
       <use xlink:href="#m833273b956" x="35.844688" y="79.177425" style="stroke: #000000; stroke-width: 0.8"/>
      </g>
     </g>
     <g id="text_13">
      <text style="font: 11px 'DejaVu Sans', 'Bitstream Vera Sans', 'Computer Modern Sans Serif', 'Lucida Grande', 'Verdana', 'Geneva', 'Lucid', 'Arial', 'Helvetica', 'Avant Garde', sans-serif; text-anchor: end" x="28.844688" y="83.356566" transform="rotate(-0 28.844688 83.356566)">6</text>
     </g>
    </g>
    <g id="ytick_8">
     <g id="line2d_25">
      <path d="M 35.844688 48.451642 
L 482.244687 48.451642 
" clip-path="url(#pcc17c49101)" style="fill: none; stroke: #b0b0b0; stroke-opacity: 0.3; stroke-width: 0.8; stroke-linecap: square"/>
     </g>
     <g id="line2d_26">
      <g>
       <use xlink:href="#m833273b956" x="35.844688" y="48.451642" style="stroke: #000000; stroke-width: 0.8"/>
      </g>
     </g>
     <g id="text_14">
      <text style="font: 11px 'DejaVu Sans', 'Bitstream Vera Sans', 'Computer Modern Sans Serif', 'Lucida Grande', 'Verdana', 'Geneva', 'Lucid', 'Arial', 'Helvetica', 'Avant Garde', sans-serif; text-anchor: end" x="28.844688" y="52.630783" transform="rotate(-0 28.844688 52.630783)">7</text>
     </g>
    </g>
    <g id="text_15">
     <text style="font: 11px 'DejaVu Sans', 'Bitstream Vera Sans', 'Computer Modern Sans Serif', 'Lucida Grande', 'Verdana', 'Geneva', 'Lucid', 'Arial', 'Helvetica', 'Avant Garde', sans-serif; text-anchor: middle" x="15.558281" y="148.310437" transform="rotate(-90 15.558281 148.310437)">label value</text>
    </g>
   </g>
   <g id="line2d_27">
    <path d="M 157.590142 171.354775 
L 259.044687 171.354775 
L 259.044687 171.354775 
L 360.499233 171.354775 
L 360.499233 171.354775 
L 461.953778 171.354775 
L 461.953778 171.354775 
" clip-path="url(#pcc17c49101)" style="fill: none; stroke: #1f77b4; stroke-width: 1.8; stroke-linecap: square"/>
    <defs>
     <path id="m543abe93c7" d="M 0 2.5 
C 0.663008 2.5 1.29895 2.236584 1.767767 1.767767 
C 2.236584 1.29895 2.5 0.663008 2.5 0 
C 2.5 -0.663008 2.236584 -1.29895 1.767767 -1.767767 
C 1.29895 -2.236584 0.663008 -2.5 0 -2.5 
C -0.663008 -2.5 -1.29895 -2.236584 -1.767767 -1.767767 
C -2.236584 -1.29895 -2.5 -0.663008 -2.5 0 
C -2.5 0.663008 -2.236584 1.29895 -1.767767 1.767767 
C -1.29895 2.236584 -0.663008 2.5 0 2.5 
z
" style="stroke: #1f77b4"/>
    </defs>
    <g clip-path="url(#pcc17c49101)">
     <use xlink:href="#m543abe93c7" x="157.590142" y="171.354775" style="fill: #1f77b4; stroke: #1f77b4"/>
     <use xlink:href="#m543abe93c7" x="259.044687" y="171.354775" style="fill: #1f77b4; stroke: #1f77b4"/>
     <use xlink:href="#m543abe93c7" x="360.499233" y="171.354775" style="fill: #1f77b4; stroke: #1f77b4"/>
     <use xlink:href="#m543abe93c7" x="461.953778" y="171.354775" style="fill: #1f77b4; stroke: #1f77b4"/>
    </g>
   </g>
   <g id="line2d_28">
    <defs>
     <path id="m91e3d01427" d="M 0 -3.5 
L -3.5 3.5 
L 3.5 3.5 
z
" style="stroke: #1f77b4; stroke-linejoin: miter"/>
    </defs>
    <g clip-path="url(#pcc17c49101)">
     <use xlink:href="#m91e3d01427" x="56.135597" y="42.306486" style="fill-opacity: 0; stroke: #1f77b4; stroke-linejoin: miter"/>
    </g>
   </g>
   <g id="line2d_29">
    <path d="M 259.044687 109.903209 
L 360.499233 109.903209 
L 360.499233 109.903209 
L 461.953778 109.903209 
L 461.953778 140.628992 
" clip-path="url(#pcc17c49101)" style="fill: none; stroke: #ff7f0e; stroke-width: 1.8; stroke-linecap: square"/>
    <defs>
     <path id="m530824a580" d="M 0 2.5 
C 0.663008 2.5 1.29895 2.236584 1.767767 1.767767 
C 2.236584 1.29895 2.5 0.663008 2.5 0 
C 2.5 -0.663008 2.236584 -1.29895 1.767767 -1.767767 
C 1.29895 -2.236584 0.663008 -2.5 0 -2.5 
C -0.663008 -2.5 -1.29895 -2.236584 -1.767767 -1.767767 
C -2.236584 -1.29895 -2.5 -0.663008 -2.5 0 
C -2.5 0.663008 -2.236584 1.29895 -1.767767 1.767767 
C -1.29895 2.236584 -0.663008 2.5 0 2.5 
z
" style="stroke: #ff7f0e"/>
    </defs>
    <g clip-path="url(#pcc17c49101)">
     <use xlink:href="#m530824a580" x="259.044687" y="109.903209" style="fill: #ff7f0e; stroke: #ff7f0e"/>
     <use xlink:href="#m530824a580" x="360.499233" y="109.903209" style="fill: #ff7f0e; stroke: #ff7f0e"/>
     <use xlink:href="#m530824a580" x="461.953778" y="140.628992" style="fill: #ff7f0e; stroke: #ff7f0e"/>
    </g>
   </g>
   <g id="line2d_30">
    <defs>
     <path id="m3d245861c2" d="M 0 -3.5 
L -3.5 3.5 
L 3.5 3.5 
z
" style="stroke: #ff7f0e; stroke-linejoin: miter"/>
    </defs>
    <g clip-path="url(#pcc17c49101)">
     <use xlink:href="#m3d245861c2" x="56.135597" y="42.306486" style="fill-opacity: 0; stroke: #ff7f0e; stroke-linejoin: miter"/>
     <use xlink:href="#m3d245861c2" x="157.590142" y="42.306486" style="fill-opacity: 0; stroke: #ff7f0e; stroke-linejoin: miter"/>
    </g>
   </g>
   <g id="line2d_31">
    <path d="M 360.499233 140.628992 
L 461.953778 140.628992 
L 461.953778 140.628992 
" clip-path="url(#pcc17c49101)" style="fill: none; stroke: #2ca02c; stroke-width: 1.8; stroke-linecap: square"/>
    <defs>
     <path id="me6a9088cf6" d="M 0 2.5 
C 0.663008 2.5 1.29895 2.236584 1.767767 1.767767 
C 2.236584 1.29895 2.5 0.663008 2.5 0 
C 2.5 -0.663008 2.236584 -1.29895 1.767767 -1.767767 
C 1.29895 -2.236584 0.663008 -2.5 0 -2.5 
C -0.663008 -2.5 -1.29895 -2.236584 -1.767767 -1.767767 
C -2.236584 -1.29895 -2.5 -0.663008 -2.5 0 
C -2.5 0.663008 -2.236584 1.29895 -1.767767 1.767767 
C -1.29895 2.236584 -0.663008 2.5 0 2.5 
z
" style="stroke: #2ca02c"/>
    </defs>
    <g clip-path="url(#pcc17c49101)">
     <use xlink:href="#me6a9088cf6" x="360.499233" y="140.628992" style="fill: #2ca02c; stroke: #2ca02c"/>
     <use xlink:href="#me6a9088cf6" x="461.953778" y="140.628992" style="fill: #2ca02c; stroke: #2ca02c"/>
    </g>
   </g>
   <g id="line2d_32">
    <defs>
     <path id="m62b6612f96" d="M 0 -3.5 
L -3.5 3.5 
L 3.5 3.5 
z
" style="stroke: #2ca02c; stroke-linejoin: miter"/>
    </defs>
    <g clip-path="url(#pcc17c49101)">
     <use xlink:href="#m62b6612f96" x="56.135597" y="42.306486" style="fill-opacity: 0; stroke: #2ca02c; stroke-linejoin: miter"/>
     <use xlink:href="#m62b6612f96" x="157.590142" y="42.306486" style="fill-opacity: 0; stroke: #2ca02c; stroke-linejoin: miter"/>
     <use xlink:href="#m62b6612f96" x="259.044687" y="42.306486" style="fill-opacity: 0; stroke: #2ca02c; stroke-linejoin: miter"/>
    </g>
   </g>
   <g id="line2d_33">
    <path d="M 157.590142 109.903209 
L 259.044687 109.903209 
L 259.044687 171.354775 
L 360.499233 171.354775 
L 360.499233 171.354775 
L 461.953778 171.354775 
L 461.953778 171.354775 
" clip-path="url(#pcc17c49101)" style="fill: none; stroke: #d62728; stroke-width: 1.8; stroke-linecap: square"/>
    <defs>
     <path id="m7065a733e3" d="M 0 2.5 
C 0.663008 2.5 1.29895 2.236584 1.767767 1.767767 
C 2.236584 1.29895 2.5 0.663008 2.5 0 
C 2.5 -0.663008 2.236584 -1.29895 1.767767 -1.767767 
C 1.29895 -2.236584 0.663008 -2.5 0 -2.5 
C -0.663008 -2.5 -1.29895 -2.236584 -1.767767 -1.767767 
C -2.236584 -1.29895 -2.5 -0.663008 -2.5 0 
C -2.5 0.663008 -2.236584 1.29895 -1.767767 1.767767 
C -1.29895 2.236584 -0.663008 2.5 0 2.5 
z
" style="stroke: #d62728"/>
    </defs>
    <g clip-path="url(#pcc17c49101)">
     <use xlink:href="#m7065a733e3" x="157.590142" y="109.903209" style="fill: #d62728; stroke: #d62728"/>
     <use xlink:href="#m7065a733e3" x="259.044687" y="171.354775" style="fill: #d62728; stroke: #d62728"/>
     <use xlink:href="#m7065a733e3" x="360.499233" y="171.354775" style="fill: #d62728; stroke: #d62728"/>
     <use xlink:href="#m7065a733e3" x="461.953778" y="171.354775" style="fill: #d62728; stroke: #d62728"/>
    </g>
   </g>
   <g id="line2d_34">
    <defs>
     <path id="m98ba0c791d" d="M 0 -3.5 
L -3.5 3.5 
L 3.5 3.5 
z
" style="stroke: #d62728; stroke-linejoin: miter"/>
    </defs>
    <g clip-path="url(#pcc17c49101)">
     <use xlink:href="#m98ba0c791d" x="56.135597" y="42.306486" style="fill-opacity: 0; stroke: #d62728; stroke-linejoin: miter"/>
    </g>
   </g>
   <g id="line2d_35">
    <path d="M 56.135597 263.532124 
L 157.590142 263.532124 
L 259.044687 263.532124 
L 360.499233 263.532124 
L 461.953778 263.532124 
" clip-path="url(#pcc17c49101)" style="fill: none; stroke-dasharray: 3.7,1.6; stroke-dashoffset: 0; stroke: #000000"/>
   </g>
   <g id="patch_3">
    <path d="M 35.844688 275.822437 
L 35.844688 20.798437 
" style="fill: none; stroke: #000000; stroke-width: 0.8; stroke-linejoin: miter; stroke-linecap: square"/>
   </g>
   <g id="patch_4">
    <path d="M 482.244687 275.822437 
L 482.244687 20.798437 
" style="fill: none; stroke: #000000; stroke-width: 0.8; stroke-linejoin: miter; stroke-linecap: square"/>
   </g>
   <g id="patch_5">
    <path d="M 35.844688 275.822437 
L 482.244687 275.822437 
" style="fill: none; stroke: #000000; stroke-width: 0.8; stroke-linejoin: miter; stroke-linecap: square"/>
   </g>
   <g id="patch_6">
    <path d="M 35.844688 20.798437 
L 482.244687 20.798437 
" style="fill: none; stroke: #000000; stroke-width: 0.8; stroke-linejoin: miter; stroke-linecap: square"/>
   </g>
   <g id="text_16">
    <text style="fill: #696969; font: 7px 'DejaVu Sans', 'Bitstream Vera Sans', 'Computer Modern Sans Serif', 'Lucida Grande', 'Verdana', 'Geneva', 'Lucid', 'Arial', 'Helvetica', 'Avant Garde', sans-serif; text-anchor: start" x="56.135597" y="255.850678" transform="rotate(-0 56.135597 255.850678)">out t</text>
   </g>
   <g id="text_17">
    <text style="fill: #696969; font: 7px 'DejaVu Sans', 'Bitstream Vera Sans', 'Computer Modern Sans Serif', 'Lucida Grande', 'Verdana', 'Geneva', 'Lucid', 'Arial', 'Helvetica', 'Avant Garde', sans-serif; text-anchor: start" x="157.590142" y="255.850678" transform="rotate(-0 157.590142 255.850678)">out node1</text>
   </g>
   <g id="text_18">
    <text style="fill: #696969; font: 7px 'DejaVu Sans', 'Bitstream Vera Sans', 'Computer Modern Sans Serif', 'Lucida Grande', 'Verdana', 'Geneva', 'Lucid', 'Arial', 'Helvetica', 'Avant Garde', sans-serif; text-anchor: start" x="259.044687" y="255.850678" transform="rotate(-0 259.044687 255.850678)">out node4</text>
   </g>
   <g id="text_19">
    <text style="fill: #696969; font: 7px 'DejaVu Sans', 'Bitstream Vera Sans', 'Computer Modern Sans Serif', 'Lucida Grande', 'Verdana', 'Geneva', 'Lucid', 'Arial', 'Helvetica', 'Avant Garde', sans-serif; text-anchor: start" x="360.499233" y="255.850678" transform="rotate(-0 360.499233 255.850678)">out node3</text>
   </g>
   <g id="text_20">
    <text style="fill: #696969; font: 7px 'DejaVu Sans', 'Bitstream Vera Sans', 'Computer Modern Sans Serif', 'Lucida Grande', 'Verdana', 'Geneva', 'Lucid', 'Arial', 'Helvetica', 'Avant Garde', sans-serif; text-anchor: start" x="461.953778" y="255.850678" transform="rotate(-0 461.953778 255.850678)">out node2</text>
   </g>
   <g id="text_21">
    <text style="fill: #808080; font: 9px 'DejaVu Sans', 'Bitstream Vera Sans', 'Computer Modern Sans Serif', 'Lucida Grande', 'Verdana', 'Geneva', 'Lucid', 'Arial', 'Helvetica', 'Avant Garde', sans-serif; text-anchor: start" x="59.179233" y="39.848423" transform="rotate(-0 59.179233 39.848423)">∞</text>
   </g>
   <g id="text_22">
    <text style="font: 10px 'DejaVu Sans', 'Bitstream Vera Sans', 'Computer Modern Sans Serif', 'Lucida Grande', 'Verdana', 'Geneva', 'Lucid', 'Arial', 'Helvetica', 'Avant Garde', sans-serif; text-anchor: middle" x="259.044688" y="14.798437" transform="rotate(-0 259.044688 14.798437)">Dijkstra-like label permanentization (5-node example, order t,1,4,3,2)</text>
   </g>
   <g id="legend_1">
    <g id="patch_7">
     <path d="M 163.334688 38.940937 
L 476.644687 38.940937 
Q 478.244687 38.940937 478.244687 37.340937 
L 478.244687 26.398437 
Q 478.244687 24.798437 476.644687 24.798437 
L 163.334688 24.798437 
Q 161.734688 24.798437 161.734688 26.398437 
L 161.734688 37.340937 
Q 161.734688 38.940937 163.334688 38.940937 
z
" style="fill: #ffffff; opacity: 0.8; stroke: #cccccc; stroke-linejoin: miter"/>
    </g>
    <g id="line2d_36">
     <path d="M 164.934687 31.277187 
L 172.934687 31.277187 
L 172.934687 31.277187 
L 180.934687 31.277187 
L 180.934687 31.277187 
" style="fill: none; stroke: #1f77b4; stroke-width: 1.8; stroke-linecap: square"/>
     <g>
      <use xlink:href="#m543abe93c7" x="172.934687" y="31.277187" style="fill: #1f77b4; stroke: #1f77b4"/>
     </g>
    </g>
    <g id="text_23">
     <text style="font: 8px 'DejaVu Sans', 'Bitstream Vera Sans', 'Computer Modern Sans Serif', 'Lucida Grande', 'Verdana', 'Geneva', 'Lucid', 'Arial', 'Helvetica', 'Avant Garde', sans-serif; text-anchor: start" x="187.334688" y="34.077187" transform="rotate(-0 187.334688 34.077187)">node 1</text>
    </g>
    <g id="line2d_37">
     <path d="M 230.933437 31.277187 
L 238.933437 31.277187 
L 238.933437 31.277187 
L 246.933437 31.277187 
L 246.933437 31.277187 
" style="fill: none; stroke: #ff7f0e; stroke-width: 1.8; stroke-linecap: square"/>
     <g>
      <use xlink:href="#m530824a580" x="238.933437" y="31.277187" style="fill: #ff7f0e; stroke: #ff7f0e"/>
     </g>
    </g>
    <g id="text_24">
     <text style="font: 8px 'DejaVu Sans', 'Bitstream Vera Sans', 'Computer Modern Sans Serif', 'Lucida Grande', 'Verdana', 'Geneva', 'Lucid', 'Arial', 'Helvetica', 'Avant Garde', sans-serif; text-anchor: start" x="253.333438" y="34.077187" transform="rotate(-0 253.333438 34.077187)">node 2</text>
    </g>
    <g id="line2d_38">
     <path d="M 296.932187 31.277187 
L 304.932187 31.277187 
L 304.932187 31.277187 
L 312.932187 31.277187 
L 312.932187 31.277187 
" style="fill: none; stroke: #2ca02c; stroke-width: 1.8; stroke-linecap: square"/>
     <g>
      <use xlink:href="#me6a9088cf6" x="304.932187" y="31.277187" style="fill: #2ca02c; stroke: #2ca02c"/>
     </g>
    </g>
    <g id="text_25">
     <text style="font: 8px 'DejaVu Sans', 'Bitstream Vera Sans', 'Computer Modern Sans Serif', 'Lucida Grande', 'Verdana', 'Geneva', 'Lucid', 'Arial', 'Helvetica', 'Avant Garde', sans-serif; text-anchor: start" x="319.332187" y="34.077187" transform="rotate(-0 319.332187 34.077187)">node 3</text>
    </g>
    <g id="line2d_39">
     <path d="M 362.930938 31.277187 
L 370.930938 31.277187 
L 370.930938 31.277187 
L 378.930938 31.277187 
L 378.930938 31.277187 
" style="fill: none; stroke: #d62728; stroke-width: 1.8; stroke-linecap: square"/>
     <g>
      <use xlink:href="#m7065a733e3" x="370.930938" y="31.277187" style="fill: #d62728; stroke: #d62728"/>
     </g>
    </g>
    <g id="text_26">
     <text style="font: 8px 'DejaVu Sans', 'Bitstream Vera Sans', 'Computer Modern Sans Serif', 'Lucida Grande', 'Verdana', 'Geneva', 'Lucid', 'Arial', 'Helvetica', 'Avant Garde', sans-serif; text-anchor: start" x="385.330938" y="34.077187" transform="rotate(-0 385.330938 34.077187)">node 4</text>
    </g>
    <g id="line2d_40">
     <path d="M 428.929688 31.277187 
L 436.929688 31.277187 
L 444.929688 31.277187 
" style="fill: none; stroke-dasharray: 3.7,1.6; stroke-dashoffset: 0; stroke: #000000"/>
    </g>
    <g id="text_27">
     <text style="font: 8px 'DejaVu Sans', 'Bitstream Vera Sans', 'Computer Modern Sans Serif', 'Lucida Grande', 'Verdana', 'Geneva', 'Lucid', 'Arial', 'Helvetica', 'Avant Garde', sans-serif; text-anchor: start" x="451.329687" y="34.077187" transform="rotate(-0 451.329687 34.077187)">t (=0)</text>
    </g>
   </g>
  </g>
 </g>
 <defs>
  <clipPath id="pcc17c49101">
   <rect x="35.844688" y="20.798437" width="446.4" height="255.024"/>
  </clipPath>
 </defs>
</svg>
