<svg xmlns="http://www.w3.org/2000/svg" width="1200" height="860" viewBox="0 0 1200 860">
  <rect x="0" y="0" width="1200" height="860" fill="#fffaf2" />
  <text x="600.00" y="32.00" text-anchor="middle" font-size="24" font-weight="bold" fill="#22313f" font-family="DejaVu Sans, Arial, sans-serif">Runtime and Correctness Comparison</text>
  <rect x="30.00" y="60.00" width="555.00" height="350.00" fill="#fffdf9" stroke="#d3d8dd" stroke-width="1.20" rx="12.00" opacity="1.00" />
  <text x="307.50" y="82.00" text-anchor="middle" font-size="16" font-weight="bold" fill="#22313f" font-family="DejaVu Sans, Arial, sans-serif">Average Runtime</text>
  <line x1="82.00" y1="366.00" x2="561.00" y2="366.00" stroke="#94a3b8" stroke-width="1.40" opacity="1.00" />
  <line x1="82.00" y1="86.00" x2="82.00" y2="366.00" stroke="#94a3b8" stroke-width="1.40" opacity="1.00" />
  <line x1="82.00" y1="366.00" x2="561.00" y2="366.00" stroke="#e2e8f0" stroke-width="1.00" opacity="0.90" stroke-dasharray="5 5" />
  <text x="72.00" y="370.00" text-anchor="end" font-size="10" font-weight="normal" fill="#475569" font-family="DejaVu Sans, Arial, sans-serif">0.00</text>
  <line x1="82.00" y1="347.13" x2="561.00" y2="347.13" stroke="#e2e8f0" stroke-width="1.00" opacity="0.90" stroke-dasharray="5 5" />
  <text x="72.00" y="351.13" text-anchor="end" font-size="10" font-weight="normal" fill="#475569" font-family="DejaVu Sans, Arial, sans-serif">0.07</text>
  <line x1="82.00" y1="328.26" x2="561.00" y2="328.26" stroke="#e2e8f0" stroke-width="1.00" opacity="0.90" stroke-dasharray="5 5" />
  <text x="72.00" y="332.26" text-anchor="end" font-size="10" font-weight="normal" fill="#475569" font-family="DejaVu Sans, Arial, sans-serif">0.13</text>
  <line x1="82.00" y1="309.39" x2="561.00" y2="309.39" stroke="#e2e8f0" stroke-width="1.00" opacity="0.90" stroke-dasharray="5 5" />
  <text x="72.00" y="313.39" text-anchor="end" font-size="10" font-weight="normal" fill="#475569" font-family="DejaVu Sans, Arial, sans-serif">0.20</text>
  <line x1="82.00" y1="290.52" x2="561.00" y2="290.52" stroke="#e2e8f0" stroke-width="1.00" opacity="0.90" stroke-dasharray="5 5" />
  <text x="72.00" y="294.52" text-anchor="end" font-size="10" font-weight="normal" fill="#475569" font-family="DejaVu Sans, Arial, sans-serif">0.27</text>
  <line x1="82.00" y1="271.65" x2="561.00" y2="271.65" stroke="#e2e8f0" stroke-width="1.00" opacity="0.90" stroke-dasharray="5 5" />
  <text x="72.00" y="275.65" text-anchor="end" font-size="10" font-weight="normal" fill="#475569" font-family="DejaVu Sans, Arial, sans-serif">0.34</text>
  <line x1="82.00" y1="366.00" x2="82.00" y2="372.00" stroke="#94a3b8" stroke-width="1.00" opacity="1.00" />
  <text x="82.00" y="388.00" text-anchor="middle" font-size="10" font-weight="normal" fill="#22313f" font-family="DejaVu Sans, Arial, sans-serif">20</text>
  <line x1="161.83" y1="366.00" x2="161.83" y2="372.00" stroke="#94a3b8" stroke-width="1.00" opacity="1.00" />
  <text x="161.83" y="388.00" text-anchor="middle" font-size="10" font-weight="normal" fill="#22313f" font-family="DejaVu Sans, Arial, sans-serif">50</text>
  <line x1="294.89" y1="366.00" x2="294.89" y2="372.00" stroke="#94a3b8" stroke-width="1.00" opacity="1.00" />
  <text x="294.89" y="388.00" text-anchor="middle" font-size="10" font-weight="normal" fill="#22313f" font-family="DejaVu Sans, Arial, sans-serif">100</text>
  <line x1="561.00" y1="366.00" x2="561.00" y2="372.00" stroke="#94a3b8" stroke-width="1.00" opacity="1.00" />
  <text x="561.00" y="388.00" text-anchor="middle" font-size="10" font-weight="normal" fill="#22313f" font-family="DejaVu Sans, Arial, sans-serif">200</text>
  <polyline points="82.00,364.24 161.83,360.89 294.89,356.18 561.00,346.73" fill="none" stroke="#1f4e5f" stroke-width="3.00" opacity="1.00" />
  <circle cx="82.00" cy="364.24" r="4.00" fill="#1f4e5f" stroke="#1f4e5f" stroke-width="1.00" />
  <circle cx="161.83" cy="360.89" r="4.00" fill="#1f4e5f" stroke="#1f4e5f" stroke-width="1.00" />
  <circle cx="294.89" cy="356.18" r="4.00" fill="#1f4e5f" stroke="#1f4e5f" stroke-width="1.00" />
  <circle cx="561.00" cy="346.73" r="4.00" fill="#1f4e5f" stroke="#1f4e5f" stroke-width="1.00" />
  <polyline points="82.00,360.64 161.83,344.30 294.89,320.31 561.00,271.65" fill="none" stroke="#c75b39" stroke-width="3.00" opacity="1.00" />
  <circle cx="82.00" cy="360.64" r="4.00" fill="#c75b39" stroke="#c75b39" stroke-width="1.00" />
  <circle cx="161.83" cy="344.30" r="4.00" fill="#c75b39" stroke="#c75b39" stroke-width="1.00" />
  <circle cx="294.89" cy="320.31" r="4.00" fill="#c75b39" stroke="#c75b39" stroke-width="1.00" />
  <circle cx="561.00" cy="271.65" r="4.00" fill="#c75b39" stroke="#c75b39" stroke-width="1.00" />
  <polyline points="82.00,364.25 161.83,359.24 294.89,344.27 561.00,289.01" fill="none" stroke="#768948" stroke-width="3.00" opacity="1.00" />
  <circle cx="82.00" cy="364.25" r="4.00" fill="#768948" stroke="#768948" stroke-width="1.00" />
  <circle cx="161.83" cy="359.24" r="4.00" fill="#768948" stroke="#768948" stroke-width="1.00" />
  <circle cx="294.89" cy="344.27" r="4.00" fill="#768948" stroke="#768948" stroke-width="1.00" />
  <circle cx="561.00" cy="289.01" r="4.00" fill="#768948" stroke="#768948" stroke-width="1.00" />
  <line x1="451.00" y1="94.00" x2="465.00" y2="94.00" stroke="#1f4e5f" stroke-width="3.00" opacity="1.00" />
  <text x="471.00" y="98.00" text-anchor="start" font-size="10" font-weight="normal" fill="#22313f" font-family="DejaVu Sans, Arial, sans-serif">vi</text>
  <line x1="451.00" y1="114.00" x2="465.00" y2="114.00" stroke="#c75b39" stroke-width="3.00" opacity="1.00" />
  <text x="471.00" y="118.00" text-anchor="start" font-size="10" font-weight="normal" fill="#22313f" font-family="DejaVu Sans, Arial, sans-serif">pi</text>
  <line x1="451.00" y1="134.00" x2="465.00" y2="134.00" stroke="#768948" stroke-width="3.00" opacity="1.00" />
  <text x="471.00" y="138.00" text-anchor="start" font-size="10" font-weight="normal" fill="#22313f" font-family="DejaVu Sans, Arial, sans-serif">dijkstra</text>
  <text x="48.00" y="226.00" text-anchor="middle" font-size="11" font-weight="normal" fill="#475569" font-family="DejaVu Sans, Arial, sans-serif">runtime_ms</text>
  <rect x="615.00" y="60.00" width="555.00" height="350.00" fill="#fffdf9" stroke="#d3d8dd" stroke-width="1.20" rx="12.00" opacity="1.00" />
  <text x="892.50" y="82.00" text-anchor="middle" font-size="16" font-weight="bold" fill="#22313f" font-family="DejaVu Sans, Arial, sans-serif">Average Iterations</text>
  <line x1="667.00" y1="366.00" x2="1146.00" y2="366.00" stroke="#94a3b8" stroke-width="1.40" opacity="1.00" />
  <line x1="667.00" y1="86.00" x2="667.00" y2="366.00" stroke="#94a3b8" stroke-width="1.40" opacity="1.00" />
  <line x1="667.00" y1="366.00" x2="1146.00" y2="366.00" stroke="#e2e8f0" stroke-width="1.00" opacity="0.90" stroke-dasharray="5 5" />
  <text x="657.00" y="370.00" text-anchor="end" font-size="10" font-weight="normal" fill="#475569" font-family="DejaVu Sans, Arial, sans-serif">0.0</text>
  <line x1="667.00" y1="315.09" x2="1146.00" y2="315.09" stroke="#e2e8f0" stroke-width="1.00" opacity="0.90" stroke-dasharray="5 5" />
  <text x="657.00" y="319.09" text-anchor="end" font-size="10" font-weight="normal" fill="#475569" font-family="DejaVu Sans, Arial, sans-serif">40.0</text>
  <line x1="667.00" y1="264.18" x2="1146.00" y2="264.18" stroke="#e2e8f0" stroke-width="1.00" opacity="0.90" stroke-dasharray="5 5" />
  <text x="657.00" y="268.18" text-anchor="end" font-size="10" font-weight="normal" fill="#475569" font-family="DejaVu Sans, Arial, sans-serif">80.0</text>
  <line x1="667.00" y1="213.27" x2="1146.00" y2="213.27" stroke="#e2e8f0" stroke-width="1.00" opacity="0.90" stroke-dasharray="5 5" />
  <text x="657.00" y="217.27" text-anchor="end" font-size="10" font-weight="normal" fill="#475569" font-family="DejaVu Sans, Arial, sans-serif">120.0</text>
  <line x1="667.00" y1="162.36" x2="1146.00" y2="162.36" stroke="#e2e8f0" stroke-width="1.00" opacity="0.90" stroke-dasharray="5 5" />
  <text x="657.00" y="166.36" text-anchor="end" font-size="10" font-weight="normal" fill="#475569" font-family="DejaVu Sans, Arial, sans-serif">160.0</text>
  <line x1="667.00" y1="111.45" x2="1146.00" y2="111.45" stroke="#e2e8f0" stroke-width="1.00" opacity="0.90" stroke-dasharray="5 5" />
  <text x="657.00" y="115.45" text-anchor="end" font-size="10" font-weight="normal" fill="#475569" font-family="DejaVu Sans, Arial, sans-serif">200.0</text>
  <line x1="667.00" y1="366.00" x2="667.00" y2="372.00" stroke="#94a3b8" stroke-width="1.00" opacity="1.00" />
  <text x="667.00" y="388.00" text-anchor="middle" font-size="10" font-weight="normal" fill="#22313f" font-family="DejaVu Sans, Arial, sans-serif">20</text>
  <line x1="746.83" y1="366.00" x2="746.83" y2="372.00" stroke="#94a3b8" stroke-width="1.00" opacity="1.00" />
  <text x="746.83" y="388.00" text-anchor="middle" font-size="10" font-weight="normal" fill="#22313f" font-family="DejaVu Sans, Arial, sans-serif">50</text>
  <line x1="879.89" y1="366.00" x2="879.89" y2="372.00" stroke="#94a3b8" stroke-width="1.00" opacity="1.00" />
  <text x="879.89" y="388.00" text-anchor="middle" font-size="10" font-weight="normal" fill="#22313f" font-family="DejaVu Sans, Arial, sans-serif">100</text>
  <line x1="1146.00" y1="366.00" x2="1146.00" y2="372.00" stroke="#94a3b8" stroke-width="1.00" opacity="1.00" />
  <text x="1146.00" y="388.00" text-anchor="middle" font-size="10" font-weight="normal" fill="#22313f" font-family="DejaVu Sans, Arial, sans-serif">200</text>
  <polyline points="667.00,360.02 746.83,356.77 879.89,356.65 1146.00,356.33" fill="none" stroke="#1f4e5f" stroke-width="3.00" opacity="1.00" />
  <circle cx="667.00" cy="360.02" r="4.00" fill="#1f4e5f" stroke="#1f4e5f" stroke-width="1.00" />
  <circle cx="746.83" cy="356.77" r="4.00" fill="#1f4e5f" stroke="#1f4e5f" stroke-width="1.00" />
  <circle cx="879.89" cy="356.65" r="4.00" fill="#1f4e5f" stroke="#1f4e5f" stroke-width="1.00" />
  <circle cx="1146.00" cy="356.33" r="4.00" fill="#1f4e5f" stroke="#1f4e5f" stroke-width="1.00" />
  <polyline points="667.00,361.67 746.83,360.40 879.89,359.89 1146.00,359.64" fill="none" stroke="#c75b39" stroke-width="3.00" opacity="1.00" />
  <circle cx="667.00" cy="361.67" r="4.00" fill="#c75b39" stroke="#c75b39" stroke-width="1.00" />
  <circle cx="746.83" cy="360.40" r="4.00" fill="#c75b39" stroke="#c75b39" stroke-width="1.00" />
  <circle cx="879.89" cy="359.89" r="4.00" fill="#c75b39" stroke="#c75b39" stroke-width="1.00" />
  <circle cx="1146.00" cy="359.64" r="4.00" fill="#c75b39" stroke="#c75b39" stroke-width="1.00" />
  <polyline points="667.00,340.55 746.83,302.36 879.89,238.73 1146.00,111.45" fill="none" stroke="#768948" stroke-width="3.00" opacity="1.00" />
  <circle cx="667.00" cy="340.55" r="4.00" fill="#768948" stroke="#768948" stroke-width="1.00" />
  <circle cx="746.83" cy="302.36" r="4.00" fill="#768948" stroke="#768948" stroke-width="1.00" />
  <circle cx="879.89" cy="238.73" r="4.00" fill="#768948" stroke="#768948" stroke-width="1.00" />
  <circle cx="1146.00" cy="111.45" r="4.00" fill="#768948" stroke="#768948" stroke-width="1.00" />
  <line x1="1036.00" y1="94.00" x2="1050.00" y2="94.00" stroke="#1f4e5f" stroke-width="3.00" opacity="1.00" />
  <text x="1056.00" y="98.00" text-anchor="start" font-size="10" font-weight="normal" fill="#22313f" font-family="DejaVu Sans, Arial, sans-serif">vi</text>
  <line x1="1036.00" y1="114.00" x2="1050.00" y2="114.00" stroke="#c75b39" stroke-width="3.00" opacity="1.00" />
  <text x="1056.00" y="118.00" text-anchor="start" font-size="10" font-weight="normal" fill="#22313f" font-family="DejaVu Sans, Arial, sans-serif">pi</text>
  <line x1="1036.00" y1="134.00" x2="1050.00" y2="134.00" stroke="#768948" stroke-width="3.00" opacity="1.00" />
  <text x="1056.00" y="138.00" text-anchor="start" font-size="10" font-weight="normal" fill="#22313f" font-family="DejaVu Sans, Arial, sans-serif">dijkstra</text>
  <text x="633.00" y="226.00" text-anchor="middle" font-size="11" font-weight="normal" fill="#475569" font-family="DejaVu Sans, Arial, sans-serif">iterations</text>
  <rect x="30.00" y="440.00" width="555.00" height="350.00" fill="#fffdf9" stroke="#d3d8dd" stroke-width="1.20" rx="12.00" opacity="1.00" />
  <text x="307.50" y="462.00" text-anchor="middle" font-size="16" font-weight="bold" fill="#22313f" font-family="DejaVu Sans, Arial, sans-serif">Success Rate</text>
  <line x1="82.00" y1="746.00" x2="561.00" y2="746.00" stroke="#94a3b8" stroke-width="1.40" opacity="1.00" />
  <line x1="82.00" y1="466.00" x2="82.00" y2="746.00" stroke="#94a3b8" stroke-width="1.40" opacity="1.00" />
  <line x1="82.00" y1="746.00" x2="561.00" y2="746.00" stroke="#e2e8f0" stroke-width="1.00" opacity="0.90" stroke-dasharray="5 5" />
  <text x="72.00" y="750.00" text-anchor="end" font-size="10" font-weight="normal" fill="#475569" font-family="DejaVu Sans, Arial, sans-serif">0.00</text>
  <line x1="82.00" y1="695.09" x2="561.00" y2="695.09" stroke="#e2e8f0" stroke-width="1.00" opacity="0.90" stroke-dasharray="5 5" />
  <text x="72.00" y="699.09" text-anchor="end" font-size="10" font-weight="normal" fill="#475569" font-family="DejaVu Sans, Arial, sans-serif">0.20</text>
  <line x1="82.00" y1="644.18" x2="561.00" y2="644.18" stroke="#e2e8f0" stroke-width="1.00" opacity="0.90" stroke-dasharray="5 5" />
  <text x="72.00" y="648.18" text-anchor="end" font-size="10" font-weight="normal" fill="#475569" font-family="DejaVu Sans, Arial, sans-serif">0.40</text>
  <line x1="82.00" y1="593.27" x2="561.00" y2="593.27" stroke="#e2e8f0" stroke-width="1.00" opacity="0.90" stroke-dasharray="5 5" />
  <text x="72.00" y="597.27" text-anchor="end" font-size="10" font-weight="normal" fill="#475569" font-family="DejaVu Sans, Arial, sans-serif">0.60</text>
  <line x1="82.00" y1="542.36" x2="561.00" y2="542.36" stroke="#e2e8f0" stroke-width="1.00" opacity="0.90" stroke-dasharray="5 5" />
  <text x="72.00" y="546.36" text-anchor="end" font-size="10" font-weight="normal" fill="#475569" font-family="DejaVu Sans, Arial, sans-serif">0.80</text>
  <line x1="82.00" y1="491.45" x2="561.00" y2="491.45" stroke="#e2e8f0" stroke-width="1.00" opacity="0.90" stroke-dasharray="5 5" />
  <text x="72.00" y="495.45" text-anchor="end" font-size="10" font-weight="normal" fill="#475569" font-family="DejaVu Sans, Arial, sans-serif">1.00</text>
  <line x1="82.00" y1="746.00" x2="82.00" y2="752.00" stroke="#94a3b8" stroke-width="1.00" opacity="1.00" />
  <text x="82.00" y="768.00" text-anchor="middle" font-size="10" font-weight="normal" fill="#22313f" font-family="DejaVu Sans, Arial, sans-serif">20</text>
  <line x1="161.83" y1="746.00" x2="161.83" y2="752.00" stroke="#94a3b8" stroke-width="1.00" opacity="1.00" />
  <text x="161.83" y="768.00" text-anchor="middle" font-size="10" font-weight="normal" fill="#22313f" font-family="DejaVu Sans, Arial, sans-serif">50</text>
  <line x1="294.89" y1="746.00" x2="294.89" y2="752.00" stroke="#94a3b8" stroke-width="1.00" opacity="1.00" />
  <text x="294.89" y="768.00" text-anchor="middle" font-size="10" font-weight="normal" fill="#22313f" font-family="DejaVu Sans, Arial, sans-serif">100</text>
  <line x1="561.00" y1="746.00" x2="561.00" y2="752.00" stroke="#94a3b8" stroke-width="1.00" opacity="1.00" />
  <text x="561.00" y="768.00" text-anchor="middle" font-size="10" font-weight="normal" fill="#22313f" font-family="DejaVu Sans, Arial, sans-serif">200</text>
  <polyline points="82.00,491.45 161.83,491.45 294.89,491.45 561.00,491.45" fill="none" stroke="#1f4e5f" stroke-width="3.00" opacity="1.00" />
  <circle cx="82.00" cy="491.45" r="4.00" fill="#1f4e5f" stroke="#1f4e5f" stroke-width="1.00" />
  <circle cx="161.83" cy="491.45" r="4.00" fill="#1f4e5f" stroke="#1f4e5f" stroke-width="1.00" />
  <circle cx="294.89" cy="491.45" r="4.00" fill="#1f4e5f" stroke="#1f4e5f" stroke-width="1.00" />
  <circle cx="561.00" cy="491.45" r="4.00" fill="#1f4e5f" stroke="#1f4e5f" stroke-width="1.00" />
  <polyline points="82.00,491.45 161.83,491.45 294.89,491.45 561.00,491.45" fill="none" stroke="#c75b39" stroke-width="3.00" opacity="1.00" />
  <circle cx="82.00" cy="491.45" r="4.00" fill="#c75b39" stroke="#c75b39" stroke-width="1.00" />
  <circle cx="161.83" cy="491.45" r="4.00" fill="#c75b39" stroke="#c75b39" stroke-width="1.00" />
  <circle cx="294.89" cy="491.45" r="4.00" fill="#c75b39" stroke="#c75b39" stroke-width="1.00" />
  <circle cx="561.00" cy="491.45" r="4.00" fill="#c75b39" stroke="#c75b39" stroke-width="1.00" />
  <polyline points="82.00,491.45 161.83,491.45 294.89,491.45 561.00,491.45" fill="none" stroke="#768948" stroke-width="3.00" opacity="1.00" />
  <circle cx="82.00" cy="491.45" r="4.00" fill="#768948" stroke="#768948" stroke-width="1.00" />
  <circle cx="161.83" cy="491.45" r="4.00" fill="#768948" stroke="#768948" stroke-width="1.00" />
  <circle cx="294.89" cy="491.45" r="4.00" fill="#768948" stroke="#768948" stroke-width="1.00" />
  <circle cx="561.00" cy="491.45" r="4.00" fill="#768948" stroke="#768948" stroke-width="1.00" />
  <line x1="451.00" y1="474.00" x2="465.00" y2="474.00" stroke="#1f4e5f" stroke-width="3.00" opacity="1.00" />
  <text x="471.00" y="478.00" text-anchor="start" font-size="10" font-weight="normal" fill="#22313f" font-family="DejaVu Sans, Arial, sans-serif">vi</text>
  <line x1="451.00" y1="494.00" x2="465.00" y2="494.00" stroke="#c75b39" stroke-width="3.00" opacity="1.00" />
  <text x="471.00" y="498.00" text-anchor="start" font-size="10" font-weight="normal" fill="#22313f" font-family="DejaVu Sans, Arial, sans-serif">pi</text>
  <line x1="451.00" y1="514.00" x2="465.00" y2="514.00" stroke="#768948" stroke-width="3.00" opacity="1.00" />
  <text x="471.00" y="518.00" text-anchor="start" font-size="10" font-weight="normal" fill="#22313f" font-family="DejaVu Sans, Arial, sans-serif">dijkstra</text>
  <text x="48.00" y="606.00" text-anchor="middle" font-size="11" font-weight="normal" fill="#475569" font-family="DejaVu Sans, Arial, sans-serif">success_rate</text>
  <rect x="615.00" y="440.00" width="555.00" height="350.00" fill="#fffdf9" stroke="#d3d8dd" stroke-width="1.20" rx="12.00" opacity="1.00" />
  <text x="892.50" y="462.00" text-anchor="middle" font-size="16" font-weight="bold" fill="#22313f" font-family="DejaVu Sans, Arial, sans-serif">Average Worst-case Cost by s</text>
  <line x1="667.00" y1="746.00" x2="1146.00" y2="746.00" stroke="#94a3b8" stroke-width="1.40" opacity="1.00" />
  <line x1="667.00" y1="466.00" x2="667.00" y2="746.00" stroke="#94a3b8" stroke-width="1.40" opacity="1.00" />
  <line x1="667.00" y1="746.00" x2="1146.00" y2="746.00" stroke="#e2e8f0" stroke-width="1.00" opacity="0.90" stroke-dasharray="5 5" />
  <text x="657.00" y="750.00" text-anchor="end" font-size="10" font-weight="normal" fill="#475569" font-family="DejaVu Sans, Arial, sans-serif">0.0</text>
  <line x1="667.00" y1="695.09" x2="1146.00" y2="695.09" stroke="#e2e8f0" stroke-width="1.00" opacity="0.90" stroke-dasharray="5 5" />
  <text x="657.00" y="699.09" text-anchor="end" font-size="10" font-weight="normal" fill="#475569" font-family="DejaVu Sans, Arial, sans-serif">20.4</text>
  <line x1="667.00" y1="644.18" x2="1146.00" y2="644.18" stroke="#e2e8f0" stroke-width="1.00" opacity="0.90" stroke-dasharray="5 5" />
  <text x="657.00" y="648.18" text-anchor="end" font-size="10" font-weight="normal" fill="#475569" font-family="DejaVu Sans, Arial, sans-serif">40.9</text>
  <line x1="667.00" y1="593.27" x2="1146.00" y2="593.27" stroke="#e2e8f0" stroke-width="1.00" opacity="0.90" stroke-dasharray="5 5" />
  <text x="657.00" y="597.27" text-anchor="end" font-size="10" font-weight="normal" fill="#475569" font-family="DejaVu Sans, Arial, sans-serif">61.3</text>
  <line x1="667.00" y1="542.36" x2="1146.00" y2="542.36" stroke="#e2e8f0" stroke-width="1.00" opacity="0.90" stroke-dasharray="5 5" />
  <text x="657.00" y="546.36" text-anchor="end" font-size="10" font-weight="normal" fill="#475569" font-family="DejaVu Sans, Arial, sans-serif">81.8</text>
  <line x1="667.00" y1="491.45" x2="1146.00" y2="491.45" stroke="#e2e8f0" stroke-width="1.00" opacity="0.90" stroke-dasharray="5 5" />
  <text x="657.00" y="495.45" text-anchor="end" font-size="10" font-weight="normal" fill="#475569" font-family="DejaVu Sans, Arial, sans-serif">102.2</text>
  <line x1="667.00" y1="746.00" x2="667.00" y2="752.00" stroke="#94a3b8" stroke-width="1.00" opacity="1.00" />
  <text x="667.00" y="768.00" text-anchor="middle" font-size="10" font-weight="normal" fill="#22313f" font-family="DejaVu Sans, Arial, sans-serif">1</text>
  <line x1="786.75" y1="746.00" x2="786.75" y2="752.00" stroke="#94a3b8" stroke-width="1.00" opacity="1.00" />
  <text x="786.75" y="768.00" text-anchor="middle" font-size="10" font-weight="normal" fill="#22313f" font-family="DejaVu Sans, Arial, sans-serif">2</text>
  <line x1="906.50" y1="746.00" x2="906.50" y2="752.00" stroke="#94a3b8" stroke-width="1.00" opacity="1.00" />
  <text x="906.50" y="768.00" text-anchor="middle" font-size="10" font-weight="normal" fill="#22313f" font-family="DejaVu Sans, Arial, sans-serif">3</text>
  <line x1="1026.25" y1="746.00" x2="1026.25" y2="752.00" stroke="#94a3b8" stroke-width="1.00" opacity="1.00" />
  <text x="1026.25" y="768.00" text-anchor="middle" font-size="10" font-weight="normal" fill="#22313f" font-family="DejaVu Sans, Arial, sans-serif">4</text>
  <line x1="1146.00" y1="746.00" x2="1146.00" y2="752.00" stroke="#94a3b8" stroke-width="1.00" opacity="1.00" />
  <text x="1146.00" y="768.00" text-anchor="middle" font-size="10" font-weight="normal" fill="#22313f" font-family="DejaVu Sans, Arial, sans-serif">5</text>
  <polyline points="667.00,706.43 786.75,626.37 906.50,562.07 1026.25,529.25 1146.00,505.09" fill="none" stroke="#1f4e5f" stroke-width="3.00" opacity="1.00" />
  <circle cx="667.00" cy="706.43" r="4.00" fill="#1f4e5f" stroke="#1f4e5f" stroke-width="1.00" />
  <circle cx="786.75" cy="626.37" r="4.00" fill="#1f4e5f" stroke="#1f4e5f" stroke-width="1.00" />
  <circle cx="906.50" cy="562.07" r="4.00" fill="#1f4e5f" stroke="#1f4e5f" stroke-width="1.00" />
  <circle cx="1026.25" cy="529.25" r="4.00" fill="#1f4e5f" stroke="#1f4e5f" stroke-width="1.00" />
  <circle cx="1146.00" cy="505.09" r="4.00" fill="#1f4e5f" stroke="#1f4e5f" stroke-width="1.00" />
  <polyline points="667.00,706.43 786.75,613.63 906.50,546.95 1026.25,520.59 1146.00,491.45" fill="none" stroke="#c75b39" stroke-width="3.00" opacity="1.00" />
  <circle cx="667.00" cy="706.43" r="4.00" fill="#c75b39" stroke="#c75b39" stroke-width="1.00" />
  <circle cx="786.75" cy="613.63" r="4.00" fill="#c75b39" stroke="#c75b39" stroke-width="1.00" />
  <circle cx="906.50" cy="546.95" r="4.00" fill="#c75b39" stroke="#c75b39" stroke-width="1.00" />
  <circle cx="1026.25" cy="520.59" r="4.00" fill="#c75b39" stroke="#c75b39" stroke-width="1.00" />
  <circle cx="1146.00" cy="491.45" r="4.00" fill="#c75b39" stroke="#c75b39" stroke-width="1.00" />
  <polyline points="667.00,706.43 786.75,641.23 906.50,584.86 1026.25,551.82 1146.00,499.01" fill="none" stroke="#768948" stroke-width="3.00" opacity="1.00" />
  <circle cx="667.00" cy="706.43" r="4.00" fill="#768948" stroke="#768948" stroke-width="1.00" />
  <circle cx="786.75" cy="641.23" r="4.00" fill="#768948" stroke="#768948" stroke-width="1.00" />
  <circle cx="906.50" cy="584.86" r="4.00" fill="#768948" stroke="#768948" stroke-width="1.00" />
  <circle cx="1026.25" cy="551.82" r="4.00" fill="#768948" stroke="#768948" stroke-width="1.00" />
  <circle cx="1146.00" cy="499.01" r="4.00" fill="#768948" stroke="#768948" stroke-width="1.00" />
  <polyline points="667.00,706.43 786.75,657.20 906.50,624.03 1026.25,602.01 1146.00,576.73" fill="none" stroke="#99627a" stroke-width="3.00" opacity="1.00" />
  <circle cx="667.00" cy="706.43" r="4.00" fill="#99627a" stroke="#99627a" stroke-width="1.00" />
  <circle cx="786.75" cy="657.20" r="4.00" fill="#99627a" stroke="#99627a" stroke-width="1.00" />
  <circle cx="906.50" cy="624.03" r="4.00" fill="#99627a" stroke="#99627a" stroke-width="1.00" />
  <circle cx="1026.25" cy="602.01" r="4.00" fill="#99627a" stroke="#99627a" stroke-width="1.00" />
  <circle cx="1146.00" cy="576.73" r="4.00" fill="#99627a" stroke="#99627a" stroke-width="1.00" />
  <line x1="1036.00" y1="474.00" x2="1050.00" y2="474.00" stroke="#1f4e5f" stroke-width="3.00" opacity="1.00" />
  <text x="1056.00" y="478.00" text-anchor="start" font-size="10" font-weight="normal" fill="#22313f" font-family="DejaVu Sans, Arial, sans-serif">baseline_nominal</text>
  <line x1="1036.00" y1="494.00" x2="1050.00" y2="494.00" stroke="#c75b39" stroke-width="3.00" opacity="1.00" />
  <text x="1056.00" y="498.00" text-anchor="start" font-size="10" font-weight="normal" fill="#22313f" font-family="DejaVu Sans, Arial, sans-serif">baseline_bestcase</text>
  <line x1="1036.00" y1="514.00" x2="1050.00" y2="514.00" stroke="#768948" stroke-width="3.00" opacity="1.00" />
  <text x="1056.00" y="518.00" text-anchor="start" font-size="10" font-weight="normal" fill="#22313f" font-family="DejaVu Sans, Arial, sans-serif">baseline_worst_immediate</text>
  <line x1="1036.00" y1="534.00" x2="1050.00" y2="534.00" stroke="#99627a" stroke-width="3.00" opacity="1.00" />
  <text x="1056.00" y="538.00" text-anchor="start" font-size="10" font-weight="normal" fill="#22313f" font-family="DejaVu Sans, Arial, sans-serif">vi</text>
  <text x="633.00" y="606.00" text-anchor="middle" font-size="11" font-weight="normal" fill="#475569" font-family="DejaVu Sans, Arial, sans-serif">avg_worst_cost</text>
</svg>
