<svg xmlns="http://www.w3.org/2000/svg" width="1200" height="860" viewBox="0 0 1200 860">
  <rect x="0" y="0" width="1200" height="860" fill="#fffaf2" />
  <text x="600.00" y="32.00" text-anchor="middle" font-size="24" font-weight="bold" fill="#22313f" font-family="DejaVu Sans, Arial, sans-serif">Runtime and Correctness Comparison</text>
  <rect x="30.00" y="60.00" width="555.00" height="350.00" fill="#fffdf9" stroke="#d3d8dd" stroke-width="1.20" rx="12.00" opacity="1.00" />
  <text x="307.50" y="82.00" text-anchor="middle" font-size="16" font-weight="bold" fill="#22313f" font-family="DejaVu Sans, Arial, sans-serif">Average Runtime</text>
  <line x1="82.00" y1="366.00" x2="561.00" y2="366.00" stroke="#94a3b8" stroke-width="1.40" opacity="1.00" />
  <line x1="82.00" y1="86.00" x2="82.00" y2="366.00" stroke="#94a3b8" stroke-width="1.40" opacity="1.00" />
  <line x1="82.00" y1="366.00" x2="561.00" y2="366.00" stroke="#e2e8f0" stroke-width="1.00" opacity="0.90" stroke-dasharray="5 5" />
  <text x="72.00" y="370.00" text-anchor="end" font-size="10" font-weight="normal" fill="#475569" font-family="DejaVu Sans, Arial, sans-serif">0.00</text>
  <line x1="82.00" y1="315.09" x2="561.00" y2="315.09" stroke="#e2e8f0" stroke-width="1.00" opacity="0.90" stroke-dasharray="5 5" />
  <text x="72.00" y="319.09" text-anchor="end" font-size="10" font-weight="normal" fill="#475569" font-family="DejaVu Sans, Arial, sans-serif">0.59</text>
  <line x1="82.00" y1="264.18" x2="561.00" y2="264.18" stroke="#e2e8f0" stroke-width="1.00" opacity="0.90" stroke-dasharray="5 5" />
  <text x="72.00" y="268.18" text-anchor="end" font-size="10" font-weight="normal" fill="#475569" font-family="DejaVu Sans, Arial, sans-serif">1.19</text>
  <line x1="82.00" y1="213.27" x2="561.00" y2="213.27" stroke="#e2e8f0" stroke-width="1.00" opacity="0.90" stroke-dasharray="5 5" />
  <text x="72.00" y="217.27" text-anchor="end" font-size="10" font-weight="normal" fill="#475569" font-family="DejaVu Sans, Arial, sans-serif">1.78</text>
  <line x1="82.00" y1="162.36" x2="561.00" y2="162.36" stroke="#e2e8f0" stroke-width="1.00" opacity="0.90" stroke-dasharray="5 5" />
  <text x="72.00" y="166.36" text-anchor="end" font-size="10" font-weight="normal" fill="#475569" font-family="DejaVu Sans, Arial, sans-serif">2.37</text>
  <line x1="82.00" y1="111.45" x2="561.00" y2="111.45" stroke="#e2e8f0" stroke-width="1.00" opacity="0.90" stroke-dasharray="5 5" />
  <text x="72.00" y="115.45" text-anchor="end" font-size="10" font-weight="normal" fill="#475569" font-family="DejaVu Sans, Arial, sans-serif">2.96</text>
  <line x1="82.00" y1="366.00" x2="82.00" y2="372.00" stroke="#94a3b8" stroke-width="1.00" opacity="1.00" />
  <text x="82.00" y="388.00" text-anchor="middle" font-size="10" font-weight="normal" fill="#22313f" font-family="DejaVu Sans, Arial, sans-serif">20</text>
  <line x1="161.83" y1="366.00" x2="161.83" y2="372.00" stroke="#94a3b8" stroke-width="1.00" opacity="1.00" />
  <text x="161.83" y="388.00" text-anchor="middle" font-size="10" font-weight="normal" fill="#22313f" font-family="DejaVu Sans, Arial, sans-serif">50</text>
  <line x1="294.89" y1="366.00" x2="294.89" y2="372.00" stroke="#94a3b8" stroke-width="1.00" opacity="1.00" />
  <text x="294.89" y="388.00" text-anchor="middle" font-size="10" font-weight="normal" fill="#22313f" font-family="DejaVu Sans, Arial, sans-serif">100</text>
  <line x1="561.00" y1="366.00" x2="561.00" y2="372.00" stroke="#94a3b8" stroke-width="1.00" opacity="1.00" />
  <text x="561.00" y="388.00" text-anchor="middle" font-size="10" font-weight="normal" fill="#22313f" font-family="DejaVu Sans, Arial, sans-serif">200</text>
  <polyline points="82.00,363.17 161.83,356.68 294.89,348.23 561.00,329.15" fill="none" stroke="#1f4e5f" stroke-width="3.00" opacity="1.00" />
  <circle cx="82.00" cy="363.17" r="4.00" fill="#1f4e5f" stroke="#1f4e5f" stroke-width="1.00" />
  <circle cx="161.83" cy="356.68" r="4.00" fill="#1f4e5f" stroke="#1f4e5f" stroke-width="1.00" />
  <circle cx="294.89" cy="348.23" r="4.00" fill="#1f4e5f" stroke="#1f4e5f" stroke-width="1.00" />
  <circle cx="561.00" cy="329.15" r="4.00" fill="#1f4e5f" stroke="#1f4e5f" stroke-width="1.00" />
  <polyline points="82.00,349.67 161.83,328.25 294.89,286.56 561.00,201.51" fill="none" stroke="#c75b39" stroke-width="3.00" opacity="1.00" />
  <circle cx="82.00" cy="349.67" r="4.00" fill="#c75b39" stroke="#c75b39" stroke-width="1.00" />
  <circle cx="161.83" cy="328.25" r="4.00" fill="#c75b39" stroke="#c75b39" stroke-width="1.00" />
  <circle cx="294.89" cy="286.56" r="4.00" fill="#c75b39" stroke="#c75b39" stroke-width="1.00" />
  <circle cx="561.00" cy="201.51" r="4.00" fill="#c75b39" stroke="#c75b39" stroke-width="1.00" />
  <polyline points="82.00,360.05 161.83,349.51 294.89,300.49 561.00,111.45" fill="none" stroke="#768948" stroke-width="3.00" opacity="1.00" />
  <circle cx="82.00" cy="360.05" r="4.00" fill="#768948" stroke="#768948" stroke-width="1.00" />
  <circle cx="161.83" cy="349.51" r="4.00" fill="#768948" stroke="#768948" stroke-width="1.00" />
  <circle cx="294.89" cy="300.49" r="4.00" fill="#768948" stroke="#768948" stroke-width="1.00" />
  <circle cx="561.00" cy="111.45" r="4.00" fill="#768948" stroke="#768948" stroke-width="1.00" />
  <line x1="451.00" y1="94.00" x2="465.00" y2="94.00" stroke="#1f4e5f" stroke-width="3.00" opacity="1.00" />
  <text x="471.00" y="98.00" text-anchor="start" font-size="10" font-weight="normal" fill="#22313f" font-family="DejaVu Sans, Arial, sans-serif">vi</text>
  <line x1="451.00" y1="114.00" x2="465.00" y2="114.00" stroke="#c75b39" stroke-width="3.00" opacity="1.00" />
  <text x="471.00" y="118.00" text-anchor="start" font-size="10" font-weight="normal" fill="#22313f" font-family="DejaVu Sans, Arial, sans-serif">pi</text>
  <line x1="451.00" y1="134.00" x2="465.00" y2="134.00" stroke="#768948" stroke-width="3.00" opacity="1.00" />
  <text x="471.00" y="138.00" text-anchor="start" font-size="10" font-weight="normal" fill="#22313f" font-family="DejaVu Sans, Arial, sans-serif">dijkstra</text>
  <text x="48.00" y="226.00" text-anchor="middle" font-size="11" font-weight="normal" fill="#475569" font-family="DejaVu Sans, Arial, sans-serif">runtime_ms</text>
  <rect x="615.00" y="60.00" width="555.00" height="350.00" fill="#fffdf9" stroke="#d3d8dd" stroke-width="1.20" rx="12.00" opacity="1.00" />
  <text x="892.50" y="82.00" text-anchor="middle" font-size="16" font-weight="bold" fill="#22313f" font-family="DejaVu Sans, Arial, sans-serif">Average Iterations</text>
  <line x1="667.00" y1="366.00" x2="1146.00" y2="366.00" stroke="#94a3b8" stroke-width="1.40" opacity="1.00" />
  <line x1="667.00" y1="86.00" x2="667.00" y2="366.00" stroke="#94a3b8" stroke-width="1.40" opacity="1.00" />
  <line x1="667.00" y1="366.00" x2="1146.00" y2="366.00" stroke="#e2e8f0" stroke-width="1.00" opacity="0.90" stroke-dasharray="5 5" />
  <text x="657.00" y="370.00" text-anchor="end" font-size="10" font-weight="normal" fill="#475569" font-family="DejaVu Sans, Arial, sans-serif">0.0</text>
  <line x1="667.00" y1="315.09" x2="1146.00" y2="315.09" stroke="#e2e8f0" stroke-width="1.00" opacity="0.90" stroke-dasharray="5 5" />
  <text x="657.00" y="319.09" text-anchor="end" font-size="10" font-weight="normal" fill="#475569" font-family="DejaVu Sans, Arial, sans-serif">40.0</text>
  <line x1="667.00" y1="264.18" x2="1146.00" y2="264.18" stroke="#e2e8f0" stroke-width="1.00" opacity="0.90" stroke-dasharray="5 5" />
  <text x="657.00" y="268.18" text-anchor="end" font-size="10" font-weight="normal" fill="#475569" font-family="DejaVu Sans, Arial, sans-serif">80.0</text>
  <line x1="667.00" y1="213.27" x2="1146.00" y2="213.27" stroke="#e2e8f0" stroke-width="1.00" opacity="0.90" stroke-dasharray="5 5" />
  <text x="657.00" y="217.27" text-anchor="end" font-size="10" font-weight="normal" fill="#475569" font-family="DejaVu Sans, Arial, sans-serif">120.0</text>
  <line x1="667.00" y1="162.36" x2="1146.00" y2="162.36" stroke="#e2e8f0" stroke-width="1.00" opacity="0.90" stroke-dasharray="5 5" />
  <text x="657.00" y="166.36" text-anchor="end" font-size="10" font-weight="normal" fill="#475569" font-family="DejaVu Sans, Arial, sans-serif">160.0</text>
  <line x1="667.00" y1="111.45" x2="1146.00" y2="111.45" stroke="#e2e8f0" stroke-width="1.00" opacity="0.90" stroke-dasharray="5 5" />
  <text x="657.00" y="115.45" text-anchor="end" font-size="10" font-weight="normal" fill="#475569" font-family="DejaVu Sans, Arial, sans-serif">200.0</text>
  <line x1="667.00" y1="366.00" x2="667.00" y2="372.00" stroke="#94a3b8" stroke-width="1.00" opacity="1.00" />
  <text x="667.00" y="388.00" text-anchor="middle" font-size="10" font-weight="normal" fill="#22313f" font-family="DejaVu Sans, Arial, sans-serif">20</text>
  <line x1="746.83" y1="366.00" x2="746.83" y2="372.00" stroke="#94a3b8" stroke-width="1.00" opacity="1.00" />
  <text x="746.83" y="388.00" text-anchor="middle" font-size="10" font-weight="normal" fill="#22313f" font-family="DejaVu Sans, Arial, sans-serif">50</text>
  <line x1="879.89" y1="366.00" x2="879.89" y2="372.00" stroke="#94a3b8" stroke-width="1.00" opacity="1.00" />
  <text x="879.89" y="388.00" text-anchor="middle" font-size="10" font-weight="normal" fill="#22313f" font-family="DejaVu Sans, Arial, sans-serif">100</text>
  <line x1="1146.00" y1="366.00" x2="1146.00" y2="372.00" stroke="#94a3b8" stroke-width="1.00" opacity="1.00" />
  <text x="1146.00" y="388.00" text-anchor="middle" font-size="10" font-weight="normal" fill="#22313f" font-family="DejaVu Sans, Arial, sans-serif">200</text>
  <polyline points="667.00,359.76 746.83,356.90 879.89,357.03 1146.00,356.71" fill="none" stroke="#1f4e5f" stroke-width="3.00" opacity="1.00" />
  <circle cx="667.00" cy="359.76" r="4.00" fill="#1f4e5f" stroke="#1f4e5f" stroke-width="1.00" />
  <circle cx="746.83" cy="356.90" r="4.00" fill="#1f4e5f" stroke="#1f4e5f" stroke-width="1.00" />
  <circle cx="879.89" cy="357.03" r="4.00" fill="#1f4e5f" stroke="#1f4e5f" stroke-width="1.00" />
  <circle cx="1146.00" cy="356.71" r="4.00" fill="#1f4e5f" stroke="#1f4e5f" stroke-width="1.00" />
  <polyline points="667.00,361.67 746.83,360.40 879.89,359.95 1146.00,359.70" fill="none" stroke="#c75b39" stroke-width="3.00" opacity="1.00" />
  <circle cx="667.00" cy="361.67" r="4.00" fill="#c75b39" stroke="#c75b39" stroke-width="1.00" />
  <circle cx="746.83" cy="360.40" r="4.00" fill="#c75b39" stroke="#c75b39" stroke-width="1.00" />
  <circle cx="879.89" cy="359.95" r="4.00" fill="#c75b39" stroke="#c75b39" stroke-width="1.00" />
  <circle cx="1146.00" cy="359.70" r="4.00" fill="#c75b39" stroke="#c75b39" stroke-width="1.00" />
  <polyline points="667.00,340.55 746.83,302.36 879.89,238.73 1146.00,111.45" fill="none" stroke="#768948" stroke-width="3.00" opacity="1.00" />
  <circle cx="667.00" cy="340.55" r="4.00" fill="#768948" stroke="#768948" stroke-width="1.00" />
  <circle cx="746.83" cy="302.36" r="4.00" fill="#768948" stroke="#768948" stroke-width="1.00" />
  <circle cx="879.89" cy="238.73" r="4.00" fill="#768948" stroke="#768948" stroke-width="1.00" />
  <circle cx="1146.00" cy="111.45" r="4.00" fill="#768948" stroke="#768948" stroke-width="1.00" />
  <line x1="1036.00" y1="94.00" x2="1050.00" y2="94.00" stroke="#1f4e5f" stroke-width="3.00" opacity="1.00" />
  <text x="1056.00" y="98.00" text-anchor="start" font-size="10" font-weight="normal" fill="#22313f" font-family="DejaVu Sans, Arial, sans-serif">vi</text>
  <line x1="1036.00" y1="114.00" x2="1050.00" y2="114.00" stroke="#c75b39" stroke-width="3.00" opacity="1.00" />
  <text x="1056.00" y="118.00" text-anchor="start" font-size="10" font-weight="normal" fill="#22313f" font-family="DejaVu Sans, Arial, sans-serif">pi</text>
  <line x1="1036.00" y1="134.00" x2="1050.00" y2="134.00" stroke="#768948" stroke-width="3.00" opacity="1.00" />
  <text x="1056.00" y="138.00" text-anchor="start" font-size="10" font-weight="normal" fill="#22313f" font-family="DejaVu Sans, Arial, sans-serif">dijkstra</text>
  <text x="633.00" y="226.00" text-anchor="middle" font-size="11" font-weight="normal" fill="#475569" font-family="DejaVu Sans, Arial, sans-serif">iterations</text>
  <rect x="30.00" y="440.00" width="555.00" height="350.00" fill="#fffdf9" stroke="#d3d8dd" stroke-width="1.20" rx="12.00" opacity="1.00" />
  <text x="307.50" y="462.00" text-anchor="middle" font-size="16" font-weight="bold" fill="#22313f" font-family="DejaVu Sans, Arial, sans-serif">Success Rate</text>
  <line x1="82.00" y1="746.00" x2="561.00" y2="746.00" stroke="#94a3b8" stroke-width="1.40" opacity="1.00" />
  <line x1="82.00" y1="466.00" x2="82.00" y2="746.00" stroke="#94a3b8" stroke-width="1.40" opacity="1.00" />
  <line x1="82.00" y1="746.00" x2="561.00" y2="746.00" stroke="#e2e8f0" stroke-width="1.00" opacity="0.90" stroke-dasharray="5 5" />
  <text x="72.00" y="750.00" text-anchor="end" font-size="10" font-weight="normal" fill="#475569" font-family="DejaVu Sans, Arial, sans-serif">0.00</text>
  <line x1="82.00" y1="695.09" x2="561.00" y2="695.09" stroke="#e2e8f0" stroke-width="1.00" opacity="0.90" stroke-dasharray="5 5" />
  <text x="72.00" y="699.09" text-anchor="end" font-size="10" font-weight="normal" fill="#475569" font-family="DejaVu Sans, Arial, sans-serif">0.20</text>
  <line x1="82.00" y1="644.18" x2="561.00" y2="644.18" stroke="#e2e8f0" stroke-width="1.00" opacity="0.90" stroke-dasharray="5 5" />
  <text x="72.00" y="648.18" text-anchor="end" font-size="10" font-weight="normal" fill="#475569" font-family="DejaVu Sans, Arial, sans-serif">0.40</text>
  <line x1="82.00" y1="593.27" x2="561.00" y2="593.27" stroke="#e2e8f0" stroke-width="1.00" opacity="0.90" stroke-dasharray="5 5" />
  <text x="72.00" y="597.27" text-anchor="end" font-size="10" font-weight="normal" fill="#475569" font-family="DejaVu Sans, Arial, sans-serif">0.60</text>
  <line x1="82.00" y1="542.36" x2="561.00" y2="542.36" stroke="#e2e8f0" stroke-width="1.00" opacity="0.90" stroke-dasharray="5 5" />
  <text x="72.00" y="546.36" text-anchor="end" font-size="10" font-weight="normal" fill="#475569" font-family="DejaVu Sans, Arial, sans-serif">0.80</text>
  <line x1="82.00" y1="491.45" x2="561.00" y2="491.45" stroke="#e2e8f0" stroke-width="1.00" opacity="0.90" stroke-dasharray="5 5" />
  <text x="72.00" y="495.45" text-anchor="end" font-size="10" font-weight="normal" fill="#475569" font-family="DejaVu Sans, Arial, sans-serif">1.00</text>
  <line x1="82.00" y1="746.00" x2="82.00" y2="752.00" stroke="#94a3b8" stroke-width="1.00" opacity="1.00" />
  <text x="82.00" y="768.00" text-anchor="middle" font-size="10" font-weight="normal" fill="#22313f" font-family="DejaVu Sans, Arial, sans-serif">20</text>
  <line x1="161.83" y1="746.00" x2="161.83" y2="752.00" stroke="#94a3b8" stroke-width="1.00" opacity="1.00" />
  <text x="161.83" y="768.00" text-anchor="middle" font-size="10" font-weight="normal" fill="#22313f" font-family="DejaVu Sans, Arial, sans-serif">50</text>
  <line x1="294.89" y1="746.00" x2="294.89" y2="752.00" stroke="#94a3b8" stroke-width="1.00" opacity="1.00" />
  <text x="294.89" y="768.00" text-anchor="middle" font-size="10" font-weight="normal" fill="#22313f" font-family="DejaVu Sans, Arial, sans-serif">100</text>
  <line x1="561.00" y1="746.00" x2="561.00" y2="752.00" stroke="#94a3b8" stroke-width="1.00" opacity="1.00" />
  <text x="561.00" y="768.00" text-anchor="middle" font-size="10" font-weight="normal" fill="#22313f" font-family="DejaVu Sans, Arial, sans-serif">200</text>
  <polyline points="82.00,491.45 161.83,491.45 294.89,491.45 561.00,491.45" fill="none" stroke="#1f4e5f" stroke-width="3.00" opacity="1.00" />
  <circle cx="82.00" cy="491.45" r="4.00" fill="#1f4e5f" stroke="#1f4e5f" stroke-width="1.00" />
  <circle cx="161.83" cy="491.45" r="4.00" fill="#1f4e5f" stroke="#1f4e5f" stroke-width="1.00" />
  <circle cx="294.89" cy="491.45" r="4.00" fill="#1f4e5f" stroke="#1f4e5f" stroke-width="1.00" />
  <circle cx="561.00" cy="491.45" r="4.00" fill="#1f4e5f" stroke="#1f4e5f" stroke-width="1.00" />
  <polyline points="82.00,491.45 161.83,491.45 294.89,491.45 561.00,491.45" fill="none" stroke="#c75b39" stroke-width="3.00" opacity="1.00" />
  <circle cx="82.00" cy="491.45" r="4.00" fill="#c75b39" stroke="#c75b39" stroke-width="1.00" />
  <circle cx="161.83" cy="491.45" r="4.00" fill="#c75b39" stroke="#c75b39" stroke-width="1.00" />
  <circle cx="294.89" cy="491.45" r="4.00" fill="#c75b39" stroke="#c75b39" stroke-width="1.00" />
  <circle cx="561.00" cy="491.45" r="4.00" fill="#c75b39" stroke="#c75b39" stroke-width="1.00" />
  <polyline points="82.00,491.45 161.83,491.45 294.89,491.45 561.00,491.45" fill="none" stroke="#768948" stroke-width="3.00" opacity="1.00" />
  <circle cx="82.00" cy="491.45" r="4.00" fill="#768948" stroke="#768948" stroke-width="1.00" />
  <circle cx="161.83" cy="491.45" r="4.00" fill="#768948" stroke="#768948" stroke-width="1.00" />
  <circle cx="294.89" cy="491.45" r="4.00" fill="#768948" stroke="#768948" stroke-width="1.00" />
  <circle cx="561.00" cy="491.45" r="4.00" fill="#768948" stroke="#768948" stroke-width="1.00" />
  <line x1="451.00" y1="474.00" x2="465.00" y2="474.00" stroke="#1f4e5f" stroke-width="3.00" opacity="1.00" />
  <text x="471.00" y="478.00" text-anchor="start" font-size="10" font-weight="normal" fill="#22313f" font-family="DejaVu Sans, Arial, sans-serif">vi</text>
  <line x1="451.00" y1="494.00" x2="465.00" y2="494.00" stroke="#c75b39" stroke-width="3.00" opacity="1.00" />
  <text x="471.00" y="498.00" text-anchor="start" font-size="10" font-weight="normal" fill="#22313f" font-family="DejaVu Sans, Arial, sans-serif">pi</text>
  <line x1="451.00" y1="514.00" x2="465.00" y2="514.00" stroke="#768948" stroke-width="3.00" opacity="1.00" />
  <text x="471.00" y="518.00" text-anchor="start" font-size="10" font-weight="normal" fill="#22313f" font-family="DejaVu Sans, Arial, sans-serif">dijkstra</text>
  <text x="48.00" y="606.00" text-anchor="middle" font-size="11" font-weight="normal" fill="#475569" font-family="DejaVu Sans, Arial, sans-serif">success_rate</text>
  <rect x="615.00" y="440.00" width="555.00" height="350.00" fill="#fffdf9" stroke="#d3d8dd" stroke-width="1.20" rx="12.00" opacity="1.00" />
  <text x="892.50" y="462.00" text-anchor="middle" font-size="16" font-weight="bold" fill="#22313f" font-family="DejaVu Sans, Arial, sans-serif">Average Worst-case Cost by s</text>
  <line x1="667.00" y1="746.00" x2="1146.00" y2="746.00" stroke="#94a3b8" stroke-width="1.40" opacity="1.00" />
  <line x1="667.00" y1="466.00" x2="667.00" y2="746.00" stroke="#94a3b8" stroke-width="1.40" opacity="1.00" />
  <line x1="667.00" y1="746.00" x2="1146.00" y2="746.00" stroke="#e2e8f0" stroke-width="1.00" opacity="0.90" stroke-dasharray="5 5" />
  <text x="657.00" y="750.00" text-anchor="end" font-size="10" font-weight="normal" fill="#475569" font-family="DejaVu Sans, Arial, sans-serif">0.0</text>
  <line x1="667.00" y1="695.09" x2="1146.00" y2="695.09" stroke="#e2e8f0" stroke-width="1.00" opacity="0.90" stroke-dasharray="5 5" />
  <text x="657.00" y="699.09" text-anchor="end" font-size="10" font-weight="normal" fill="#475569" font-family="DejaVu Sans, Arial, sans-serif">22.6</text>
  <line x1="667.00" y1="644.18" x2="1146.00" y2="644.18" stroke="#e2e8f0" stroke-width="1.00" opacity="0.90" stroke-dasharray="5 5" />
  <text x="657.00" y="648.18" text-anchor="end" font-size="10" font-weight="normal" fill="#475569" font-family="DejaVu Sans, Arial, sans-serif">45.3</text>
  <line x1="667.00" y1="593.27" x2="1146.00" y2="593.27" stroke="#e2e8f0" stroke-width="1.00" opacity="0.90" stroke-dasharray="5 5" />
  <text x="657.00" y="597.27" text-anchor="end" font-size="10" font-weight="normal" fill="#475569" font-family="DejaVu Sans, Arial, sans-serif">67.9</text>
  <line x1="667.00" y1="542.36" x2="1146.00" y2="542.36" stroke="#e2e8f0" stroke-width="1.00" opacity="0.90" stroke-dasharray="5 5" />
  <text x="657.00" y="546.36" text-anchor="end" font-size="10" font-weight="normal" fill="#475569" font-family="DejaVu Sans, Arial, sans-serif">90.6</text>
  <line x1="667.00" y1="491.45" x2="1146.00" y2="491.45" stroke="#e2e8f0" stroke-width="1.00" opacity="0.90" stroke-dasharray="5 5" />
  <text x="657.00" y="495.45" text-anchor="end" font-size="10" font-weight="normal" fill="#475569" font-family="DejaVu Sans, Arial, sans-serif">113.2</text>
  <line x1="667.00" y1="746.00" x2="667.00" y2="752.00" stroke="#94a3b8" stroke-width="1.00" opacity="1.00" />
  <text x="667.00" y="768.00" text-anchor="middle" font-size="10" font-weight="normal" fill="#22313f" font-family="DejaVu Sans, Arial, sans-serif">1</text>
  <line x1="786.75" y1="746.00" x2="786.75" y2="752.00" stroke="#94a3b8" stroke-width="1.00" opacity="1.00" />
  <text x="786.75" y="768.00" text-anchor="middle" font-size="10" font-weight="normal" fill="#22313f" font-family="DejaVu Sans, Arial, sans-serif">2</text>
  <line x1="906.50" y1="746.00" x2="906.50" y2="752.00" stroke="#94a3b8" stroke-width="1.00" opacity="1.00" />
  <text x="906.50" y="768.00" text-anchor="middle" font-size="10" font-weight="normal" fill="#22313f" font-family="DejaVu Sans, Arial, sans-serif">3</text>
  <line x1="1026.25" y1="746.00" x2="1026.25" y2="752.00" stroke="#94a3b8" stroke-width="1.00" opacity="1.00" />
  <text x="1026.25" y="768.00" text-anchor="middle" font-size="10" font-weight="normal" fill="#22313f" font-family="DejaVu Sans, Arial, sans-serif">4</text>
  <line x1="1146.00" y1="746.00" x2="1146.00" y2="752.00" stroke="#94a3b8" stroke-width="1.00" opacity="1.00" />
  <text x="1146.00" y="768.00" text-anchor="middle" font-size="10" font-weight="normal" fill="#22313f" font-family="DejaVu Sans, Arial, sans-serif">5</text>
  <polyline points="667.00,707.97 786.75,616.86 906.50,555.97 1026.25,539.08 1146.00,495.87" fill="none" stroke="#1f4e5f" stroke-width="3.00" opacity="1.00" />
  <circle cx="667.00" cy="707.97" r="4.00" fill="#1f4e5f" stroke="#1f4e5f" stroke-width="1.00" />
  <circle cx="786.75" cy="616.86" r="4.00" fill="#1f4e5f" stroke="#1f4e5f" stroke-width="1.00" />
  <circle cx="906.50" cy="555.97" r="4.00" fill="#1f4e5f" stroke="#1f4e5f" stroke-width="1.00" />
  <circle cx="1026.25" cy="539.08" r="4.00" fill="#1f4e5f" stroke="#1f4e5f" stroke-width="1.00" />
  <circle cx="1146.00" cy="495.87" r="4.00" fill="#1f4e5f" stroke="#1f4e5f" stroke-width="1.00" />
  <polyline points="667.00,707.97 786.75,612.58 906.50,551.08 1026.25,518.88 1146.00,491.45" fill="none" stroke="#c75b39" stroke-width="3.00" opacity="1.00" />
  <circle cx="667.00" cy="707.97" r="4.00" fill="#c75b39" stroke="#c75b39" stroke-width="1.00" />
  <circle cx="786.75" cy="612.58" r="4.00" fill="#c75b39" stroke="#c75b39" stroke-width="1.00" />
  <circle cx="906.50" cy="551.08" r="4.00" fill="#c75b39" stroke="#c75b39" stroke-width="1.00" />
  <circle cx="1026.25" cy="518.88" r="4.00" fill="#c75b39" stroke="#c75b39" stroke-width="1.00" />
  <circle cx="1146.00" cy="491.45" r="4.00" fill="#c75b39" stroke="#c75b39" stroke-width="1.00" />
  <polyline points="667.00,707.97 786.75,641.86 906.50,598.13 1026.25,534.87 1146.00,506.17" fill="none" stroke="#768948" stroke-width="3.00" opacity="1.00" />
  <circle cx="667.00" cy="707.97" r="4.00" fill="#768948" stroke="#768948" stroke-width="1.00" />
  <circle cx="786.75" cy="641.86" r="4.00" fill="#768948" stroke="#768948" stroke-width="1.00" />
  <circle cx="906.50" cy="598.13" r="4.00" fill="#768948" stroke="#768948" stroke-width="1.00" />
  <circle cx="1026.25" cy="534.87" r="4.00" fill="#768948" stroke="#768948" stroke-width="1.00" />
  <circle cx="1146.00" cy="506.17" r="4.00" fill="#768948" stroke="#768948" stroke-width="1.00" />
  <polyline points="667.00,707.97 786.75,655.98 906.50,628.54 1026.25,598.73 1146.00,574.27" fill="none" stroke="#99627a" stroke-width="3.00" opacity="1.00" />
  <circle cx="667.00" cy="707.97" r="4.00" fill="#99627a" stroke="#99627a" stroke-width="1.00" />
  <circle cx="786.75" cy="655.98" r="4.00" fill="#99627a" stroke="#99627a" stroke-width="1.00" />
  <circle cx="906.50" cy="628.54" r="4.00" fill="#99627a" stroke="#99627a" stroke-width="1.00" />
  <circle cx="1026.25" cy="598.73" r="4.00" fill="#99627a" stroke="#99627a" stroke-width="1.00" />
  <circle cx="1146.00" cy="574.27" r="4.00" fill="#99627a" stroke="#99627a" stroke-width="1.00" />
  <line x1="1036.00" y1="474.00" x2="1050.00" y2="474.00" stroke="#1f4e5f" stroke-width="3.00" opacity="1.00" />
  <text x="1056.00" y="478.00" text-anchor="start" font-size="10" font-weight="normal" fill="#22313f" font-family="DejaVu Sans, Arial, sans-serif">baseline_nominal</text>
  <line x1="1036.00" y1="494.00" x2="1050.00" y2="494.00" stroke="#c75b39" stroke-width="3.00" opacity="1.00" />
  <text x="1056.00" y="498.00" text-anchor="start" font-size="10" font-weight="normal" fill="#22313f" font-family="DejaVu Sans, Arial, sans-serif">baseline_bestcase</text>
  <line x1="1036.00" y1="514.00" x2="1050.00" y2="514.00" stroke="#768948" stroke-width="3.00" opacity="1.00" />
  <text x="1056.00" y="518.00" text-anchor="start" font-size="10" font-weight="normal" fill="#22313f" font-family="DejaVu Sans, Arial, sans-serif">baseline_worst_immediate</text>
  <line x1="1036.00" y1="534.00" x2="1050.00" y2="534.00" stroke="#99627a" stroke-width="3.00" opacity="1.00" />
  <text x="1056.00" y="538.00" text-anchor="start" font-size="10" font-weight="normal" fill="#22313f" font-family="DejaVu Sans, Arial, sans-serif">vi</text>
  <text x="633.00" y="606.00" text-anchor="middle" font-size="11" font-weight="normal" fill="#475569" font-family="DejaVu Sans, Arial, sans-serif">avg_worst_cost</text>
</svg>
