<svg xmlns="http://www.w3.org/2000/svg" width="3000" height="520" viewBox="0 0 3000 520"><rect x="0" y="0" width="3000" height="520" fill="#fffaf2" /><g transform="translate(0,0)">
  <rect x="0" y="0" width="1000" height="520" fill="#fffaf2" />
  <text x="500.00" y="36.00" text-anchor="middle" font-size="24" font-weight="bold" fill="#22313f" font-family="DejaVu Sans, Arial, sans-serif">Nominal Path</text>
  <line x1="108.22" y1="252.67" x2="345.11" y2="92.33" stroke="#2f855a" stroke-width="4.00" opacity="0.98" />
  <polygon points="345.11,92.33 338.54,104.03 331.81,94.09" fill="#2f855a" opacity="0.98" />
  <rect x="184.67" y="150.50" width="84.00" height="20.00" fill="#ffffff" stroke="none" stroke-width="0.00" rx="5.00" opacity="0.82" />
  <text x="226.67" y="164.50" text-anchor="middle" font-size="10" font-weight="normal" fill="#22313f" font-family="DejaVu Sans, Arial, sans-serif">fast_risky | 1.0</text>
  <line x1="112.00" y1="265.00" x2="341.33" y2="265.00" stroke="#1f4e5f" stroke-width="2.70" opacity="0.90" />
  <polygon points="341.33,265.00 329.33,271.00 329.33,259.00" fill="#1f4e5f" opacity="0.90" />
  <rect x="184.67" y="253.00" width="84.00" height="20.00" fill="#ffffff" stroke="none" stroke-width="0.00" rx="5.00" opacity="0.82" />
  <text x="226.67" y="267.00" text-anchor="middle" font-size="10" font-weight="normal" fill="#22313f" font-family="DejaVu Sans, Arial, sans-serif">fast_risky | 1.0</text>
  <line x1="108.22" y1="277.33" x2="345.11" y2="437.67" stroke="#c7d0d9" stroke-width="1.60" opacity="0.52" />
  <polygon points="345.11,437.67 331.81,435.91 338.54,425.97" fill="#c7d0d9" opacity="0.52" />
  <rect x="184.67" y="351.50" width="84.00" height="20.00" fill="#ffffff" stroke="none" stroke-width="0.00" rx="5.00" opacity="0.82" />
  <text x="226.67" y="365.50" text-anchor="middle" font-size="10" font-weight="normal" fill="#8b98a5" font-family="DejaVu Sans, Arial, sans-serif">safe | 3.0</text>
  <line x1="384.17" y1="87.05" x2="889.16" y2="257.95" stroke="#2f855a" stroke-width="4.00" opacity="0.98" />
  <polygon points="889.16,257.95 875.87,259.78 879.72,248.42" fill="#2f855a" opacity="0.98" />
  <rect x="594.67" y="158.50" width="84.00" height="20.00" fill="#ffffff" stroke="none" stroke-width="0.00" rx="5.00" opacity="0.82" />
  <text x="636.67" y="172.50" text-anchor="middle" font-size="10" font-weight="normal" fill="#22313f" font-family="DejaVu Sans, Arial, sans-serif">finish | 1.0</text>
  <line x1="385.33" y1="265.00" x2="614.67" y2="265.00" stroke="#1f4e5f" stroke-width="2.70" opacity="0.90" />
  <polygon points="614.67,265.00 602.67,271.00 602.67,259.00" fill="#1f4e5f" opacity="0.90" />
  <rect x="458.00" y="251.00" width="84.00" height="20.00" fill="#ffffff" stroke="none" stroke-width="0.00" rx="5.00" opacity="0.82" />
  <text x="500.00" y="265.00" text-anchor="middle" font-size="10" font-weight="normal" fill="#22313f" font-family="DejaVu Sans, Arial, sans-serif">trap_route | 1.0</text>
  <line x1="384.17" y1="442.95" x2="889.16" y2="272.05" stroke="#1f4e5f" stroke-width="2.70" opacity="0.90" />
  <polygon points="889.16,272.05 879.72,281.58 875.87,270.22" fill="#1f4e5f" opacity="0.90" />
  <rect x="594.67" y="343.50" width="84.00" height="20.00" fill="#ffffff" stroke="none" stroke-width="0.00" rx="5.00" opacity="0.82" />
  <text x="636.67" y="357.50" text-anchor="middle" font-size="10" font-weight="normal" fill="#22313f" font-family="DejaVu Sans, Arial, sans-serif">safe_finish | 4.0</text>
  <line x1="658.67" y1="265.00" x2="888.00" y2="265.00" stroke="#1f4e5f" stroke-width="2.70" opacity="0.90" />
  <polygon points="888.00,265.00 876.00,271.00 876.00,259.00" fill="#1f4e5f" opacity="0.90" />
  <rect x="731.33" y="251.00" width="84.00" height="20.00" fill="#ffffff" stroke="none" stroke-width="0.00" rx="5.00" opacity="0.82" />
  <text x="773.33" y="265.00" text-anchor="middle" font-size="10" font-weight="normal" fill="#22313f" font-family="DejaVu Sans, Arial, sans-serif">expensive_finish | 100.0</text>
  <circle cx="90.00" cy="265.00" r="18.00" fill="#f4efe6" stroke="#274c5e" stroke-width="2.40" />
  <text x="90.00" y="269.00" text-anchor="middle" font-size="14" font-weight="bold" fill="#22313f" font-family="DejaVu Sans, Arial, sans-serif">0</text>
  <circle cx="363.33" cy="80.00" r="18.00" fill="#f4efe6" stroke="#274c5e" stroke-width="2.40" />
  <text x="363.33" y="84.00" text-anchor="middle" font-size="14" font-weight="bold" fill="#22313f" font-family="DejaVu Sans, Arial, sans-serif">1</text>
  <circle cx="363.33" cy="265.00" r="18.00" fill="#f4efe6" stroke="#274c5e" stroke-width="2.40" />
  <text x="363.33" y="269.00" text-anchor="middle" font-size="14" font-weight="bold" fill="#22313f" font-family="DejaVu Sans, Arial, sans-serif">2</text>
  <circle cx="363.33" cy="450.00" r="18.00" fill="#f4efe6" stroke="#274c5e" stroke-width="2.40" />
  <text x="363.33" y="454.00" text-anchor="middle" font-size="14" font-weight="bold" fill="#22313f" font-family="DejaVu Sans, Arial, sans-serif">3</text>
  <circle cx="636.67" cy="265.00" r="18.00" fill="#f4efe6" stroke="#274c5e" stroke-width="2.40" />
  <text x="636.67" y="269.00" text-anchor="middle" font-size="14" font-weight="bold" fill="#22313f" font-family="DejaVu Sans, Arial, sans-serif">4</text>
  <circle cx="910.00" cy="265.00" r="18.00" fill="#d8efe0" stroke="#274c5e" stroke-width="2.40" />
  <text x="910.00" y="269.00" text-anchor="middle" font-size="14" font-weight="bold" fill="#22313f" font-family="DejaVu Sans, Arial, sans-serif">T5</text>
</g><g transform="translate(1000,0)">
  <rect x="0" y="0" width="1000" height="520" fill="#fffaf2" />
  <text x="500.00" y="36.00" text-anchor="middle" font-size="24" font-weight="bold" fill="#22313f" font-family="DejaVu Sans, Arial, sans-serif">Adversarial Path, cost=102.0</text>
  <line x1="108.22" y1="252.67" x2="345.11" y2="92.33" stroke="#1f4e5f" stroke-width="2.70" opacity="0.90" />
  <polygon points="345.11,92.33 338.54,104.03 331.81,94.09" fill="#1f4e5f" opacity="0.90" />
  <rect x="184.67" y="150.50" width="84.00" height="20.00" fill="#ffffff" stroke="none" stroke-width="0.00" rx="5.00" opacity="0.82" />
  <text x="226.67" y="164.50" text-anchor="middle" font-size="10" font-weight="normal" fill="#22313f" font-family="DejaVu Sans, Arial, sans-serif">fast_risky | 1.0</text>
  <line x1="112.00" y1="265.00" x2="341.33" y2="265.00" stroke="#c2410c" stroke-width="4.00" opacity="0.98" />
  <polygon points="341.33,265.00 329.33,271.00 329.33,259.00" fill="#c2410c" opacity="0.98" />
  <rect x="184.67" y="253.00" width="84.00" height="20.00" fill="#ffffff" stroke="none" stroke-width="0.00" rx="5.00" opacity="0.82" />
  <text x="226.67" y="267.00" text-anchor="middle" font-size="10" font-weight="normal" fill="#22313f" font-family="DejaVu Sans, Arial, sans-serif">fast_risky | 1.0</text>
  <line x1="108.22" y1="277.33" x2="345.11" y2="437.67" stroke="#c7d0d9" stroke-width="1.60" opacity="0.52" />
  <polygon points="345.11,437.67 331.81,435.91 338.54,425.97" fill="#c7d0d9" opacity="0.52" />
  <rect x="184.67" y="351.50" width="84.00" height="20.00" fill="#ffffff" stroke="none" stroke-width="0.00" rx="5.00" opacity="0.82" />
  <text x="226.67" y="365.50" text-anchor="middle" font-size="10" font-weight="normal" fill="#8b98a5" font-family="DejaVu Sans, Arial, sans-serif">safe | 3.0</text>
  <line x1="384.17" y1="87.05" x2="889.16" y2="257.95" stroke="#1f4e5f" stroke-width="2.70" opacity="0.90" />
  <polygon points="889.16,257.95 875.87,259.78 879.72,248.42" fill="#1f4e5f" opacity="0.90" />
  <rect x="594.67" y="158.50" width="84.00" height="20.00" fill="#ffffff" stroke="none" stroke-width="0.00" rx="5.00" opacity="0.82" />
  <text x="636.67" y="172.50" text-anchor="middle" font-size="10" font-weight="normal" fill="#22313f" font-family="DejaVu Sans, Arial, sans-serif">finish | 1.0</text>
  <line x1="385.33" y1="265.00" x2="614.67" y2="265.00" stroke="#c2410c" stroke-width="4.00" opacity="0.98" />
  <polygon points="614.67,265.00 602.67,271.00 602.67,259.00" fill="#c2410c" opacity="0.98" />
  <rect x="458.00" y="251.00" width="84.00" height="20.00" fill="#ffffff" stroke="none" stroke-width="0.00" rx="5.00" opacity="0.82" />
  <text x="500.00" y="265.00" text-anchor="middle" font-size="10" font-weight="normal" fill="#22313f" font-family="DejaVu Sans, Arial, sans-serif">trap_route | 1.0</text>
  <line x1="384.17" y1="442.95" x2="889.16" y2="272.05" stroke="#1f4e5f" stroke-width="2.70" opacity="0.90" />
  <polygon points="889.16,272.05 879.72,281.58 875.87,270.22" fill="#1f4e5f" opacity="0.90" />
  <rect x="594.67" y="343.50" width="84.00" height="20.00" fill="#ffffff" stroke="none" stroke-width="0.00" rx="5.00" opacity="0.82" />
  <text x="636.67" y="357.50" text-anchor="middle" font-size="10" font-weight="normal" fill="#22313f" font-family="DejaVu Sans, Arial, sans-serif">safe_finish | 4.0</text>
  <line x1="658.67" y1="265.00" x2="888.00" y2="265.00" stroke="#c2410c" stroke-width="4.00" opacity="0.98" />
  <polygon points="888.00,265.00 876.00,271.00 876.00,259.00" fill="#c2410c" opacity="0.98" />
  <rect x="731.33" y="251.00" width="84.00" height="20.00" fill="#ffffff" stroke="none" stroke-width="0.00" rx="5.00" opacity="0.82" />
  <text x="773.33" y="265.00" text-anchor="middle" font-size="10" font-weight="normal" fill="#22313f" font-family="DejaVu Sans, Arial, sans-serif">expensive_finish | 100.0</text>
  <circle cx="90.00" cy="265.00" r="18.00" fill="#f4efe6" stroke="#274c5e" stroke-width="2.40" />
  <text x="90.00" y="269.00" text-anchor="middle" font-size="14" font-weight="bold" fill="#22313f" font-family="DejaVu Sans, Arial, sans-serif">0</text>
  <circle cx="363.33" cy="80.00" r="18.00" fill="#f4efe6" stroke="#274c5e" stroke-width="2.40" />
  <text x="363.33" y="84.00" text-anchor="middle" font-size="14" font-weight="bold" fill="#22313f" font-family="DejaVu Sans, Arial, sans-serif">1</text>
  <circle cx="363.33" cy="265.00" r="18.00" fill="#f4efe6" stroke="#274c5e" stroke-width="2.40" />
  <text x="363.33" y="269.00" text-anchor="middle" font-size="14" font-weight="bold" fill="#22313f" font-family="DejaVu Sans, Arial, sans-serif">2</text>
  <circle cx="363.33" cy="450.00" r="18.00" fill="#f4efe6" stroke="#274c5e" stroke-width="2.40" />
  <text x="363.33" y="454.00" text-anchor="middle" font-size="14" font-weight="bold" fill="#22313f" font-family="DejaVu Sans, Arial, sans-serif">3</text>
  <circle cx="636.67" cy="265.00" r="18.00" fill="#f4efe6" stroke="#274c5e" stroke-width="2.40" />
  <text x="636.67" y="269.00" text-anchor="middle" font-size="14" font-weight="bold" fill="#22313f" font-family="DejaVu Sans, Arial, sans-serif">4</text>
  <circle cx="910.00" cy="265.00" r="18.00" fill="#d8efe0" stroke="#274c5e" stroke-width="2.40" />
  <text x="910.00" y="269.00" text-anchor="middle" font-size="14" font-weight="bold" fill="#22313f" font-family="DejaVu Sans, Arial, sans-serif">T5</text>
</g><g transform="translate(2000,0)">
  <rect x="0" y="0" width="1000" height="520" fill="#fffaf2" />
  <text x="500.00" y="36.00" text-anchor="middle" font-size="24" font-weight="bold" fill="#22313f" font-family="DejaVu Sans, Arial, sans-serif">Robust Policy, cost=7.0</text>
  <line x1="108.22" y1="252.67" x2="345.11" y2="92.33" stroke="#c7d0d9" stroke-width="1.60" opacity="0.52" />
  <polygon points="345.11,92.33 338.54,104.03 331.81,94.09" fill="#c7d0d9" opacity="0.52" />
  <rect x="184.67" y="150.50" width="84.00" height="20.00" fill="#ffffff" stroke="none" stroke-width="0.00" rx="5.00" opacity="0.82" />
  <text x="226.67" y="164.50" text-anchor="middle" font-size="10" font-weight="normal" fill="#8b98a5" font-family="DejaVu Sans, Arial, sans-serif">fast_risky | 1.0</text>
  <line x1="112.00" y1="265.00" x2="341.33" y2="265.00" stroke="#c7d0d9" stroke-width="1.60" opacity="0.52" />
  <polygon points="341.33,265.00 329.33,271.00 329.33,259.00" fill="#c7d0d9" opacity="0.52" />
  <rect x="184.67" y="253.00" width="84.00" height="20.00" fill="#ffffff" stroke="none" stroke-width="0.00" rx="5.00" opacity="0.82" />
  <text x="226.67" y="267.00" text-anchor="middle" font-size="10" font-weight="normal" fill="#8b98a5" font-family="DejaVu Sans, Arial, sans-serif">fast_risky | 1.0</text>
  <line x1="108.22" y1="277.33" x2="345.11" y2="437.67" stroke="#1d4ed8" stroke-width="4.00" opacity="0.98" />
  <polygon points="345.11,437.67 331.81,435.91 338.54,425.97" fill="#1d4ed8" opacity="0.98" />
  <rect x="184.67" y="351.50" width="84.00" height="20.00" fill="#ffffff" stroke="none" stroke-width="0.00" rx="5.00" opacity="0.82" />
  <text x="226.67" y="365.50" text-anchor="middle" font-size="10" font-weight="normal" fill="#22313f" font-family="DejaVu Sans, Arial, sans-serif">safe | 3.0</text>
  <line x1="384.17" y1="87.05" x2="889.16" y2="257.95" stroke="#1f4e5f" stroke-width="2.70" opacity="0.90" />
  <polygon points="889.16,257.95 875.87,259.78 879.72,248.42" fill="#1f4e5f" opacity="0.90" />
  <rect x="594.67" y="158.50" width="84.00" height="20.00" fill="#ffffff" stroke="none" stroke-width="0.00" rx="5.00" opacity="0.82" />
  <text x="636.67" y="172.50" text-anchor="middle" font-size="10" font-weight="normal" fill="#22313f" font-family="DejaVu Sans, Arial, sans-serif">finish | 1.0</text>
  <line x1="385.33" y1="265.00" x2="614.67" y2="265.00" stroke="#1f4e5f" stroke-width="2.70" opacity="0.90" />
  <polygon points="614.67,265.00 602.67,271.00 602.67,259.00" fill="#1f4e5f" opacity="0.90" />
  <rect x="458.00" y="251.00" width="84.00" height="20.00" fill="#ffffff" stroke="none" stroke-width="0.00" rx="5.00" opacity="0.82" />
  <text x="500.00" y="265.00" text-anchor="middle" font-size="10" font-weight="normal" fill="#22313f" font-family="DejaVu Sans, Arial, sans-serif">trap_route | 1.0</text>
  <line x1="384.17" y1="442.95" x2="889.16" y2="272.05" stroke="#1d4ed8" stroke-width="4.00" opacity="0.98" />
  <polygon points="889.16,272.05 879.72,281.58 875.87,270.22" fill="#1d4ed8" opacity="0.98" />
  <rect x="594.67" y="343.50" width="84.00" height="20.00" fill="#ffffff" stroke="none" stroke-width="0.00" rx="5.00" opacity="0.82" />
  <text x="636.67" y="357.50" text-anchor="middle" font-size="10" font-weight="normal" fill="#22313f" font-family="DejaVu Sans, Arial, sans-serif">safe_finish | 4.0</text>
  <line x1="658.67" y1="265.00" x2="888.00" y2="265.00" stroke="#1f4e5f" stroke-width="2.70" opacity="0.90" />
  <polygon points="888.00,265.00 876.00,271.00 876.00,259.00" fill="#1f4e5f" opacity="0.90" />
  <rect x="731.33" y="251.00" width="84.00" height="20.00" fill="#ffffff" stroke="none" stroke-width="0.00" rx="5.00" opacity="0.82" />
  <text x="773.33" y="265.00" text-anchor="middle" font-size="10" font-weight="normal" fill="#22313f" font-family="DejaVu Sans, Arial, sans-serif">expensive_finish | 100.0</text>
  <circle cx="90.00" cy="265.00" r="18.00" fill="#f4efe6" stroke="#274c5e" stroke-width="2.40" />
  <text x="90.00" y="269.00" text-anchor="middle" font-size="14" font-weight="bold" fill="#22313f" font-family="DejaVu Sans, Arial, sans-serif">0</text>
  <text x="90.00" y="303.00" text-anchor="middle" font-size="11" font-weight="normal" fill="#334155" font-family="DejaVu Sans, Arial, sans-serif">J=7.0</text>
  <circle cx="363.33" cy="80.00" r="18.00" fill="#f4efe6" stroke="#274c5e" stroke-width="2.40" />
  <text x="363.33" y="84.00" text-anchor="middle" font-size="14" font-weight="bold" fill="#22313f" font-family="DejaVu Sans, Arial, sans-serif">1</text>
  <text x="363.33" y="118.00" text-anchor="middle" font-size="11" font-weight="normal" fill="#334155" font-family="DejaVu Sans, Arial, sans-serif">J=1.0</text>
  <circle cx="363.33" cy="265.00" r="18.00" fill="#f4efe6" stroke="#274c5e" stroke-width="2.40" />
  <text x="363.33" y="269.00" text-anchor="middle" font-size="14" font-weight="bold" fill="#22313f" font-family="DejaVu Sans, Arial, sans-serif">2</text>
  <text x="363.33" y="303.00" text-anchor="middle" font-size="11" font-weight="normal" fill="#334155" font-family="DejaVu Sans, Arial, sans-serif">J=101.0</text>
  <circle cx="363.33" cy="450.00" r="18.00" fill="#f4efe6" stroke="#274c5e" stroke-width="2.40" />
  <text x="363.33" y="454.00" text-anchor="middle" font-size="14" font-weight="bold" fill="#22313f" font-family="DejaVu Sans, Arial, sans-serif">3</text>
  <text x="363.33" y="488.00" text-anchor="middle" font-size="11" font-weight="normal" fill="#334155" font-family="DejaVu Sans, Arial, sans-serif">J=4.0</text>
  <circle cx="636.67" cy="265.00" r="18.00" fill="#f4efe6" stroke="#274c5e" stroke-width="2.40" />
  <text x="636.67" y="269.00" text-anchor="middle" font-size="14" font-weight="bold" fill="#22313f" font-family="DejaVu Sans, Arial, sans-serif">4</text>
  <text x="636.67" y="303.00" text-anchor="middle" font-size="11" font-weight="normal" fill="#334155" font-family="DejaVu Sans, Arial, sans-serif">J=100.0</text>
  <circle cx="910.00" cy="265.00" r="18.00" fill="#d8efe0" stroke="#274c5e" stroke-width="2.40" />
  <text x="910.00" y="269.00" text-anchor="middle" font-size="14" font-weight="bold" fill="#22313f" font-family="DejaVu Sans, Arial, sans-serif">T5</text>
  <text x="910.00" y="303.00" text-anchor="middle" font-size="11" font-weight="normal" fill="#334155" font-family="DejaVu Sans, Arial, sans-serif">J=0.0</text>
</g></svg>
